<svg xmlns="http://www.w3.org/2000/svg" width="254" height="148" fill="none"><g filter="url(#a)"><mask id="b" width="234" height="128" x="19" y="3" fill="#000" maskUnits="userSpaceOnUse"><path fill="#fff" d="M19 3h234v128H19z"/><path d="M25.08 56.616q2.816-8.576 5.376-16.704a377 377 0 0 0 2.24-7.104L35 25.256q1.152-3.84 2.176-7.36a202 202 0 0 0 1.728-6.272q3.52 0 6.656-.384 1.6-.192 3.264-.384a90 90 0 0 1 3.52-.32l-.384 3.136q-.127.896-.256 1.856-.127.896-.256 1.856a38 38 0 0 1-.32 1.984q-.192.96-.32 1.984a443 443 0 0 1-.768 5.568 337 337 0 0 1-1.216 7.68h.832q1.855-4.864 3.072-8.064 1.215-3.264 1.984-5.312a137 137 0 0 1 2.368-6.08q1.28-3.072 2.112-4.736a100 100 0 0 0 3.648-.384 154 154 0 0 0 4.352-.704q2.24-.385 3.84-.64a415 415 0 0 0-1.664 10.88q-.704 5.44-1.28 10.432-.512 4.927-.896 8.896a538 538 0 0 0-.704 7.872q-.32 3.84-.64 7.616L54.712 56.36q0-.127.192-2.88.192-2.752.64-6.848.448-4.095.896-7.744.448-3.712.896-6.08h-.576q-1.6 4.864-3.904 10.624-2.24 5.76-4.416 12.736a77 77 0 0 0-3.84.192q-1.6.065-3.712.192l2.048-23.744h-.96q-.064.705-.576 2.752a505 505 0 0 1-1.216 4.608q-.704 2.56-1.472 5.12-2.88 10.048-3.072 10.624zm42.057.448 8.384-45.504 20.224-1.728a32 32 0 0 0-.768 2.88q-.32 1.216-.64 2.56-.255 1.28-.448 2.304-.832.064-2.368.128-1.537 0-3.136.064h-3.968l-2.24 11.456 3.712-.192q.705-.064 1.408-.064h2.752q.576 0 .896-.064l-.256 1.792a27 27 0 0 1-.192 1.728l-.576 3.52q-.32.064-.832.064h-1.216q-.704.064-1.472.064t-1.472.064q-.832.064-1.728.064-.895 0-1.92.064L79.105 48.04l9.344-1.472-.64 7.296zm32.245.064q-2.56 0-5.12-1.344-2.56-1.408-4.928-4.416l4.736-9.28q.704 1.216 2.048 2.304a13 13 0 0 0 2.944 1.728q1.535.64 2.624.64 1.663 0 3.136-1.024 1.536-1.024 1.536-2.752 0-2.24-2.048-4.096a47 47 0 0 0-4.609-3.648 32 32 0 0 1-4.607-4.032q-2.049-2.304-2.048-5.248 0-3.328 1.92-6.144 1.92-2.88 4.992-4.992a24.9 24.9 0 0 1 6.528-3.328q3.52-1.216 6.656-1.216 2.24 0 4.16.768a6.27 6.27 0 0 1 3.072 2.368q1.152 1.665 1.152 4.48 0 .448-.064.896 0 .448-.064.896a10 10 0 0 1-.192.96 47 47 0 0 0-.128.96l-9.28 2.688q.127-.512.192-1.024.128-.512.128-1.024 0-1.92-.704-2.752-.64-.896-1.728-.896-.576 0-1.664.64-1.089.576-1.984 1.664-.832 1.024-.832 2.304 0 2.112 1.728 3.52a52 52 0 0 0 4.096 2.752q1.088.64 2.432 2.048 1.344 1.344 2.304 3.712 1.023 2.304 1.024 5.952 0 4.735-2.368 8.32-2.304 3.585-6.272 5.632-3.968 1.984-8.769 1.984m27.5 0q-2.56 0-5.12-1.344-2.56-1.408-4.928-4.416l4.736-9.28q.704 1.216 2.048 2.304 1.407 1.087 2.944 1.728 1.535.64 2.624.64 1.663 0 3.136-1.024 1.536-1.024 1.536-2.752 0-2.24-2.048-4.096a47 47 0 0 0-4.608-3.648 32 32 0 0 1-4.608-4.032q-2.049-2.304-2.048-5.248 0-3.328 1.92-6.144 1.92-2.88 4.992-4.992a24.8 24.8 0 0 1 6.528-3.328q3.52-1.216 6.656-1.216 2.24 0 4.16.768a6.27 6.27 0 0 1 3.072 2.368q1.152 1.665 1.152 4.48 0 .448-.064.896 0 .448-.064.896a10 10 0 0 1-.192.96 47 47 0 0 0-.128.96l-9.28 2.688q.127-.512.192-1.024.128-.512.128-1.024 0-1.92-.704-2.752-.64-.896-1.728-.896-.576 0-1.664.64-1.089.576-1.984 1.664-.832 1.024-.832 2.304 0 2.112 1.728 3.52a52 52 0 0 0 4.096 2.752q1.088.64 2.432 2.048 1.344 1.344 2.304 3.712 1.024 2.304 1.024 5.952 0 4.735-2.368 8.32-2.304 3.585-6.272 5.632-3.968 1.984-8.768 1.984m-83.306 67.744q.127-1.087.256-2.112l.256-2.048.384-3.584q.064-.896.128-1.664t.128-1.408H39.16l-2.56 9.216q-1.408.192-3.328.448-1.92.192-3.584.384l-2.048.256q-.96.128-1.984.256l5.056-16.768q.896-3.008 2.048-6.848a624 624 0 0 0 2.304-7.872q1.215-4.032 2.24-7.552 1.088-3.585 1.728-6.016 4.351-.32 8.832-.768 4.544-.448 8.832-1.216-.32 3.585-.64 8.128-.255 4.48-.512 9.28-.192 4.8-.448 9.472a793 793 0 0 1-.32 9.152q-.192 4.672-.384 9.6l-1.92.256-1.92.256q-1.6.257-3.52.576zm-2.88-17.216q.384 0 1.408-.064a264 264 0 0 0 2.048-.128q.96-.064 1.152-.064 0-.832.256-3.392.255-2.56.512-5.376.127-1.664.256-3.392.192-1.792.384-3.648l.384-5.568-.96.064-1.472 5.504zm25.64 17.472q-4.032 0-6.593-3.776t-2.56-10.368q0-6.016 1.664-11.84 1.665-5.887 4.672-10.56 3.009-4.672 7.105-7.488 4.16-2.88 9.151-2.88 3.136 0 5.376 2.432t2.24 6.528v1.216q.001.192-.064.448l-8.383 2.24q-.769-1.6-1.793-1.6-1.535 0-3.263 2.496-1.665 2.496-3.2 5.952a58 58 0 0 0-1.856 4.736 49 49 0 0 0-1.216 4.544q-.449 2.112-.448 3.456 0 1.985.575 2.88.45.832 1.409.832t2.111-.896q1.152-.96 2.112-2.368 1.025-1.408 1.344-2.816l7.297 2.944q-3.136 7.168-7.489 10.56-4.287 3.328-8.192 3.328m26.5 0q-4.033 0-6.593-3.776t-2.56-10.368q0-6.016 1.664-11.84 1.665-5.887 4.672-10.56 3.009-4.672 7.105-7.488 4.16-2.88 9.152-2.88 3.135 0 5.376 2.432 2.24 2.432 2.24 6.528v1.216q0 .192-.064.448l-8.384 2.24q-.769-1.6-1.792-1.6-1.536 0-3.264 2.496-1.665 2.496-3.2 5.952a58 58 0 0 0-1.856 4.736 49 49 0 0 0-1.216 4.544q-.449 2.112-.448 3.456 0 1.985.575 2.88.45.832 1.409.832t2.111-.896q1.152-.96 2.112-2.368 1.024-1.408 1.345-2.816l7.296 2.944q-3.136 7.168-7.488 10.56-4.29 3.328-8.193 3.328m26.436.128q-4.224 0-6.912-3.264t-2.688-9.856q0-3.648.896-7.68a49 49 0 0 1 2.496-7.936 46 46 0 0 1 3.712-7.232q3.392-5.376 7.807-8.768 4.417-3.392 9.281-3.392 3.84 0 5.888 1.984 2.112 1.92 2.944 4.992.831 3.008.832 6.272 0 7.615-2.368 14.208-2.304 6.528-6.016 11.072-3.712 4.672-7.936 7.168-4.16 2.432-7.936 2.432m3.456-10.56q2.88 0 5.056-1.92 2.24-1.92 3.776-4.864a27.7 27.7 0 0 0 2.304-6.272q.768-3.264.768-5.888 0-1.024-.192-2.176-.192-1.216-.832-2.112t-1.984-.896q-2.945 0-5.312 2.176-2.369 2.112-3.968 5.376-1.6 3.328-2.368 6.528t-.768 5.824q0 1.344.96 2.816.96 1.408 2.56 1.408m27.082 11.456q-1.92 0-3.904-.832a8.15 8.15 0 0 1-3.328-2.56q-1.344-1.728-1.344-4.416v-.512q0-.32.064-.512.192-1.664.512-4.352.384-2.688.896-5.824.512-3.2 1.024-6.336.576-3.136 1.024-5.696.96-5.12 1.536-8.256.576-3.135.896-4.8.384-1.728.576-2.56.704-.064 1.472-.128.833-.128 1.728-.192.896-.128 1.728-.192.895-.064 1.728-.128l3.904-.384q-.832 3.904-1.6 7.424l-1.344 6.592-2.944 14.144a47 47 0 0 0-.576 2.688 58 58 0 0 0-.576 2.624 17 17 0 0 0-.256 2.816q0 1.025.512 1.728.512.64 1.28.64 1.088 0 1.792-.832t1.152-2.048a17.4 17.4 0 0 0 .704-2.432q.256-1.28.448-2.048.64-2.944 1.152-5.696.576-2.815 1.152-5.952.64-3.135 1.408-7.232.512-2.816 1.024-5.696a244 244 0 0 0 1.088-5.952l9.728-.64-.576 3.072a863 863 0 0 0-1.664 9.28 903 903 0 0 1-1.024 5.312 160 160 0 0 1-1.152 5.952q-.64 3.008-1.216 5.696a116 116 0 0 1-.96 4.608q-1.28 5.248-3.968 8.256-2.688 2.944-5.952 4.16-3.2 1.216-6.144 1.216m16.573-.832q1.92-9.216 3.648-17.856 1.407-8.128 2.752-15.616t1.92-13.76q.447.064.767.064h1.985q1.663 0 3.712-.064 2.048-.128 3.776-.192.448 2.24.832 4.416.447 2.176.768 4.224.32 1.792.704 3.712.384 1.856.768 3.776.32 1.92.64 3.584.384 1.6.64 2.944.768-3.776 1.408-7.424.703-3.648 1.344-6.592l1.856-8.576 7.808-.96a554 554 0 0 0-2.048 9.536 659 659 0 0 0-1.792 9.024 533 533 0 0 0-2.816 14.72q-1.217 6.912-1.856 12.032.704 0-.256.192-.897.128-2.688.448a53 53 0 0 0-3.84.704q-2.049.448-3.648 1.088-.192-2.56-.384-4.992t-.448-4.736q-.384-4.096-.896-8.128-.513-4.032-1.024-6.4a431 431 0 0 1-1.088 6.464q-.64 3.584-1.408 7.232l-1.792 8.96zm34.377-.256q.704-3.52 1.408-6.976.768-3.52 1.408-6.912 2.432-12.16 3.968-23.296a8 8 0 0 0-1.472-.128 8.5 8.5 0 0 0-1.472 0 7.2 7.2 0 0 1-3.008-.384q.064-.512.064-1.088v-2.624q0-.704.064-1.344.064-.704.064-1.472 0-.833.064-1.664a87 87 0 0 0 6.656.256q4.735 0 9.024-.32 4.352-.32 8-.768l-.704 3.456-.576 3.008a40 40 0 0 1-.576 2.624q-.704.192-1.408.32t-1.408.192-1.472.192l-1.408.256a507 507 0 0 0-1.6 8.192q-.576 3.456-1.088 6.656a271 271 0 0 1-1.088 6.912 314 314 0 0 0-1.92 13.12zm34.004-.192q.127-1.087.256-2.112l.256-2.048.384-3.584a123 123 0 0 1 .256-3.072h-5.568l-2.56 9.216q-1.408.192-3.328.448-1.92.192-3.584.384l-2.048.256q-.96.128-1.985.256l5.057-16.768q.896-3.008 2.048-6.848a624 624 0 0 0 2.304-7.872 836 836 0 0 0 2.24-7.552q1.087-3.585 1.728-6.016 4.351-.32 8.832-.768 4.543-.448 8.832-1.216-.32 3.585-.64 8.128-.257 4.48-.512 9.28-.192 4.8-.448 9.472a809 809 0 0 1-.32 9.152q-.192 4.672-.384 9.6l-1.92.256-1.92.256q-1.6.257-3.52.576zm-2.88-17.216q.384 0 1.408-.064 1.088-.064 2.048-.128t1.152-.064q0-.832.256-3.392.255-2.56.512-5.376.127-1.664.256-3.392.192-1.792.384-3.648l.384-5.568-.96.064-1.472 5.504z"/></mask><path fill="#FF7127" d="M25.08 56.616q2.816-8.576 5.376-16.704a377 377 0 0 0 2.24-7.104L35 25.256q1.152-3.84 2.176-7.36a202 202 0 0 0 1.728-6.272q3.52 0 6.656-.384 1.6-.192 3.264-.384a90 90 0 0 1 3.52-.32l-.384 3.136q-.127.896-.256 1.856-.127.896-.256 1.856a38 38 0 0 1-.32 1.984q-.192.96-.32 1.984a443 443 0 0 1-.768 5.568 337 337 0 0 1-1.216 7.68h.832q1.855-4.864 3.072-8.064 1.215-3.264 1.984-5.312a137 137 0 0 1 2.368-6.08q1.28-3.072 2.112-4.736a100 100 0 0 0 3.648-.384 154 154 0 0 0 4.352-.704q2.24-.385 3.84-.64a415 415 0 0 0-1.664 10.88q-.704 5.44-1.28 10.432-.512 4.927-.896 8.896a538 538 0 0 0-.704 7.872q-.32 3.84-.64 7.616L54.712 56.36q0-.127.192-2.88.192-2.752.64-6.848.448-4.095.896-7.744.448-3.712.896-6.08h-.576q-1.6 4.864-3.904 10.624-2.24 5.76-4.416 12.736a77 77 0 0 0-3.84.192q-1.6.065-3.712.192l2.048-23.744h-.96q-.064.705-.576 2.752a505 505 0 0 1-1.216 4.608q-.704 2.56-1.472 5.12-2.88 10.048-3.072 10.624zm42.057.448 8.384-45.504 20.224-1.728a32 32 0 0 0-.768 2.88q-.32 1.216-.64 2.56-.255 1.28-.448 2.304-.832.064-2.368.128-1.537 0-3.136.064h-3.968l-2.24 11.456 3.712-.192q.705-.064 1.408-.064h2.752q.576 0 .896-.064l-.256 1.792a27 27 0 0 1-.192 1.728l-.576 3.52q-.32.064-.832.064h-1.216q-.704.064-1.472.064t-1.472.064q-.832.064-1.728.064-.895 0-1.92.064L79.105 48.04l9.344-1.472-.64 7.296zm32.245.064q-2.56 0-5.12-1.344-2.56-1.408-4.928-4.416l4.736-9.28q.704 1.216 2.048 2.304a13 13 0 0 0 2.944 1.728q1.535.64 2.624.64 1.663 0 3.136-1.024 1.536-1.024 1.536-2.752 0-2.24-2.048-4.096a47 47 0 0 0-4.609-3.648 32 32 0 0 1-4.607-4.032q-2.049-2.304-2.048-5.248 0-3.328 1.92-6.144 1.92-2.88 4.992-4.992a24.9 24.9 0 0 1 6.528-3.328q3.52-1.216 6.656-1.216 2.24 0 4.16.768a6.27 6.27 0 0 1 3.072 2.368q1.152 1.665 1.152 4.48 0 .448-.064.896 0 .448-.064.896a10 10 0 0 1-.192.96 47 47 0 0 0-.128.96l-9.28 2.688q.127-.512.192-1.024.128-.512.128-1.024 0-1.92-.704-2.752-.64-.896-1.728-.896-.576 0-1.664.64-1.089.576-1.984 1.664-.832 1.024-.832 2.304 0 2.112 1.728 3.52a52 52 0 0 0 4.096 2.752q1.088.64 2.432 2.048 1.344 1.344 2.304 3.712 1.023 2.304 1.024 5.952 0 4.735-2.368 8.32-2.304 3.585-6.272 5.632-3.968 1.984-8.769 1.984m27.5 0q-2.56 0-5.12-1.344-2.56-1.408-4.928-4.416l4.736-9.28q.704 1.216 2.048 2.304 1.407 1.087 2.944 1.728 1.535.64 2.624.64 1.663 0 3.136-1.024 1.536-1.024 1.536-2.752 0-2.24-2.048-4.096a47 47 0 0 0-4.608-3.648 32 32 0 0 1-4.608-4.032q-2.049-2.304-2.048-5.248 0-3.328 1.92-6.144 1.92-2.88 4.992-4.992a24.8 24.8 0 0 1 6.528-3.328q3.52-1.216 6.656-1.216 2.24 0 4.16.768a6.27 6.27 0 0 1 3.072 2.368q1.152 1.665 1.152 4.48 0 .448-.064.896 0 .448-.064.896a10 10 0 0 1-.192.96 47 47 0 0 0-.128.96l-9.28 2.688q.127-.512.192-1.024.128-.512.128-1.024 0-1.92-.704-2.752-.64-.896-1.728-.896-.576 0-1.664.64-1.089.576-1.984 1.664-.832 1.024-.832 2.304 0 2.112 1.728 3.52a52 52 0 0 0 4.096 2.752q1.088.64 2.432 2.048 1.344 1.344 2.304 3.712 1.024 2.304 1.024 5.952 0 4.735-2.368 8.32-2.304 3.585-6.272 5.632-3.968 1.984-8.768 1.984m-83.306 67.744q.127-1.087.256-2.112l.256-2.048.384-3.584q.064-.896.128-1.664t.128-1.408H39.16l-2.56 9.216q-1.408.192-3.328.448-1.92.192-3.584.384l-2.048.256q-.96.128-1.984.256l5.056-16.768q.896-3.008 2.048-6.848a624 624 0 0 0 2.304-7.872q1.215-4.032 2.24-7.552 1.088-3.585 1.728-6.016 4.351-.32 8.832-.768 4.544-.448 8.832-1.216-.32 3.585-.64 8.128-.255 4.48-.512 9.28-.192 4.8-.448 9.472a793 793 0 0 1-.32 9.152q-.192 4.672-.384 9.6l-1.92.256-1.92.256q-1.6.257-3.52.576zm-2.88-17.216q.384 0 1.408-.064a264 264 0 0 0 2.048-.128q.96-.064 1.152-.064 0-.832.256-3.392.255-2.56.512-5.376.127-1.664.256-3.392.192-1.792.384-3.648l.384-5.568-.96.064-1.472 5.504zm25.64 17.472q-4.032 0-6.593-3.776t-2.56-10.368q0-6.016 1.664-11.84 1.665-5.887 4.672-10.56 3.009-4.672 7.105-7.488 4.16-2.88 9.151-2.88 3.136 0 5.376 2.432t2.24 6.528v1.216q.001.192-.064.448l-8.383 2.24q-.769-1.6-1.793-1.6-1.535 0-3.263 2.496-1.665 2.496-3.2 5.952a58 58 0 0 0-1.856 4.736 49 49 0 0 0-1.216 4.544q-.449 2.112-.448 3.456 0 1.985.575 2.88.45.832 1.409.832t2.111-.896q1.152-.96 2.112-2.368 1.025-1.408 1.344-2.816l7.297 2.944q-3.136 7.168-7.489 10.56-4.287 3.328-8.192 3.328m26.5 0q-4.033 0-6.593-3.776t-2.56-10.368q0-6.016 1.664-11.84 1.665-5.887 4.672-10.56 3.009-4.672 7.105-7.488 4.16-2.88 9.152-2.88 3.135 0 5.376 2.432 2.24 2.432 2.24 6.528v1.216q0 .192-.064.448l-8.384 2.24q-.769-1.6-1.792-1.6-1.536 0-3.264 2.496-1.665 2.496-3.2 5.952a58 58 0 0 0-1.856 4.736 49 49 0 0 0-1.216 4.544q-.449 2.112-.448 3.456 0 1.985.575 2.88.45.832 1.409.832t2.111-.896q1.152-.96 2.112-2.368 1.024-1.408 1.345-2.816l7.296 2.944q-3.136 7.168-7.488 10.56-4.29 3.328-8.193 3.328m26.436.128q-4.224 0-6.912-3.264t-2.688-9.856q0-3.648.896-7.68a49 49 0 0 1 2.496-7.936 46 46 0 0 1 3.712-7.232q3.392-5.376 7.807-8.768 4.417-3.392 9.281-3.392 3.84 0 5.888 1.984 2.112 1.92 2.944 4.992.831 3.008.832 6.272 0 7.615-2.368 14.208-2.304 6.528-6.016 11.072-3.712 4.672-7.936 7.168-4.16 2.432-7.936 2.432m3.456-10.56q2.88 0 5.056-1.92 2.24-1.92 3.776-4.864a27.7 27.7 0 0 0 2.304-6.272q.768-3.264.768-5.888 0-1.024-.192-2.176-.192-1.216-.832-2.112t-1.984-.896q-2.945 0-5.312 2.176-2.369 2.112-3.968 5.376-1.6 3.328-2.368 6.528t-.768 5.824q0 1.344.96 2.816.96 1.408 2.56 1.408m27.082 11.456q-1.92 0-3.904-.832a8.15 8.15 0 0 1-3.328-2.56q-1.344-1.728-1.344-4.416v-.512q0-.32.064-.512.192-1.664.512-4.352.384-2.688.896-5.824.512-3.2 1.024-6.336.576-3.136 1.024-5.696.96-5.12 1.536-8.256.576-3.135.896-4.8.384-1.728.576-2.56.704-.064 1.472-.128.833-.128 1.728-.192.896-.128 1.728-.192.895-.064 1.728-.128l3.904-.384q-.832 3.904-1.6 7.424l-1.344 6.592-2.944 14.144a47 47 0 0 0-.576 2.688 58 58 0 0 0-.576 2.624 17 17 0 0 0-.256 2.816q0 1.025.512 1.728.512.64 1.28.64 1.088 0 1.792-.832t1.152-2.048a17.4 17.4 0 0 0 .704-2.432q.256-1.28.448-2.048.64-2.944 1.152-5.696.576-2.815 1.152-5.952.64-3.135 1.408-7.232.512-2.816 1.024-5.696a244 244 0 0 0 1.088-5.952l9.728-.64-.576 3.072a863 863 0 0 0-1.664 9.28 903 903 0 0 1-1.024 5.312 160 160 0 0 1-1.152 5.952q-.64 3.008-1.216 5.696a116 116 0 0 1-.96 4.608q-1.28 5.248-3.968 8.256-2.688 2.944-5.952 4.16-3.2 1.216-6.144 1.216m16.573-.832q1.92-9.216 3.648-17.856 1.407-8.128 2.752-15.616t1.92-13.76q.447.064.767.064h1.985q1.663 0 3.712-.064 2.048-.128 3.776-.192.448 2.24.832 4.416.447 2.176.768 4.224.32 1.792.704 3.712.384 1.856.768 3.776.32 1.92.64 3.584.384 1.6.64 2.944.768-3.776 1.408-7.424.703-3.648 1.344-6.592l1.856-8.576 7.808-.96a554 554 0 0 0-2.048 9.536 659 659 0 0 0-1.792 9.024 533 533 0 0 0-2.816 14.72q-1.217 6.912-1.856 12.032.704 0-.256.192-.897.128-2.688.448a53 53 0 0 0-3.84.704q-2.049.448-3.648 1.088-.192-2.56-.384-4.992t-.448-4.736q-.384-4.096-.896-8.128-.513-4.032-1.024-6.4a431 431 0 0 1-1.088 6.464q-.64 3.584-1.408 7.232l-1.792 8.96zm34.377-.256q.704-3.52 1.408-6.976.768-3.52 1.408-6.912 2.432-12.16 3.968-23.296a8 8 0 0 0-1.472-.128 8.5 8.5 0 0 0-1.472 0 7.2 7.2 0 0 1-3.008-.384q.064-.512.064-1.088v-2.624q0-.704.064-1.344.064-.704.064-1.472 0-.833.064-1.664a87 87 0 0 0 6.656.256q4.735 0 9.024-.32 4.352-.32 8-.768l-.704 3.456-.576 3.008a40 40 0 0 1-.576 2.624q-.704.192-1.408.32t-1.408.192-1.472.192l-1.408.256a507 507 0 0 0-1.6 8.192q-.576 3.456-1.088 6.656a271 271 0 0 1-1.088 6.912 314 314 0 0 0-1.92 13.12zm34.004-.192q.127-1.087.256-2.112l.256-2.048.384-3.584a123 123 0 0 1 .256-3.072h-5.568l-2.56 9.216q-1.408.192-3.328.448-1.92.192-3.584.384l-2.048.256q-.96.128-1.985.256l5.057-16.768q.896-3.008 2.048-6.848a624 624 0 0 0 2.304-7.872 836 836 0 0 0 2.24-7.552q1.087-3.585 1.728-6.016 4.351-.32 8.832-.768 4.543-.448 8.832-1.216-.32 3.585-.64 8.128-.257 4.48-.512 9.28-.192 4.8-.448 9.472a809 809 0 0 1-.32 9.152q-.192 4.672-.384 9.6l-1.92.256-1.92.256q-1.6.257-3.52.576zm-2.88-17.216q.384 0 1.408-.064 1.088-.064 2.048-.128t1.152-.064q0-.832.256-3.392.255-2.56.512-5.376.127-1.664.256-3.392.192-1.792.384-3.648l.384-5.568-.96.064-1.472 5.504z"/><path fill="#fff" d="m25.08 56.616-3.8-1.248-1.85 5.634 5.916-.395zm5.376-16.704-3.802-1.243-.007.02-.006.021zm2.24-7.104-3.826-1.167zM35 25.256l3.826 1.167.003-.009.002-.009zm2.176-7.36 3.84 1.117zm1.728-6.272v-4h-3.106l-.77 3.009zm6.656-.384-.477-3.972-.01.002zm3.264-.384-.442-3.976-.008.001-.009.001zm3.52-.32 3.97.486.59-4.822-4.845.346zm-.384 3.136 3.96.566.005-.04.005-.04zm-.256 1.856 3.96.566.002-.019.003-.018zm-.256 1.856 3.965.529zm-.32 1.984 3.922.785.005-.024.005-.024zm-.32 1.984 3.967.512.001-.008.001-.008zm-.768 5.568 3.958.576.002-.01zm-1.216 7.68-3.944-.667-.79 4.667h4.734zm.832 0v4h2.755l.982-2.574zm3.072-8.064 3.74 1.42.004-.011.004-.013zm1.984-5.312 3.745 1.404.008-.021.008-.023zm2.368-6.08 3.692 1.539zm2.112-4.736-.332-3.986-2.24.187-1.006 2.01zm3.648-.384.481 3.97.05-.005.051-.008zm4.352-.704-.676-3.942-.01.001-.01.002zm3.84-.64 3.946.658.914-5.486-5.492.878zm-1.664 10.88-3.962-.553-.002.02-.003.02zm-1.28 10.432-3.974-.459-.002.023-.003.023zm-1.6 16.768 3.986.332v-.005zm-.64 7.616.702 3.938 3.024-.539.26-3.061zM54.712 56.36h-4v4.776l4.702-.838zm.192-2.88-3.99-.278zm.64-6.848 3.976.435zm.896-7.744 3.97.488.001-.009zm.896-6.08 3.93.744.898-4.744h-4.828zm-.576 0v-4h-2.895l-.905 2.75zm-3.904 10.624-3.714-1.486-.007.018-.007.018zM48.44 56.168l.114 3.998 2.854-.081.85-2.726zm-3.84.192.16 3.997.08-.003.079-.007zm-3.712.192-3.985-.344-.398 4.617 4.625-.28zm2.048-23.744 3.985.344.375-4.344h-4.36zm-.96 0v-4h-3.653l-.33 3.638zM41.4 35.56l3.873 1 .004-.015.004-.015zm-1.216 4.608 3.857 1.06.003-.011.003-.012zm-1.472 5.12-3.831-1.15-.007.024-.007.024zM35.64 55.912l.266 3.991 2.68-.178.849-2.548zm-10.56.704 3.8 1.248a1450 1450 0 0 0 5.391-16.75l-3.815-1.202-3.815-1.202a1443 1443 0 0 1-5.361 16.658zm5.376-16.704 3.802 1.243q1.102-3.37 2.264-7.18l-3.826-1.167-3.826-1.167q-1.142 3.742-2.216 7.028zm2.24-7.104 3.826 1.167 2.304-7.552L35 25.256l-3.826-1.167-2.304 7.552zM35 25.256l3.831 1.15q1.157-3.855 2.186-7.393l-3.841-1.117-3.84-1.117a916 916 0 0 1-2.167 7.328zm2.176-7.36 3.84 1.117q1.038-3.566 1.763-6.398l-3.875-.991-3.875-.991q-.684 2.673-1.694 6.146zm1.728-6.272v4a59 59 0 0 0 7.142-.414l-.486-3.97-.486-3.97a51 51 0 0 1-6.17.354zm6.656-.384.477 3.971q1.59-.19 3.246-.381l-.459-3.974-.459-3.974q-1.672.194-3.282.386zm3.264-.384.442 3.976a86 86 0 0 1 3.363-.306l-.285-3.99-.285-3.99q-1.867.134-3.677.334zm3.52-.32-3.97-.486-.384 3.136 3.97.486 3.97.486.384-3.136zm-.384 3.136L48 13.106q-.13.916-.26 1.893l3.964.529 3.965.529q.126-.943.25-1.82zm-.256 1.856-3.96-.566q-.13.916-.26 1.893l3.964.529 3.965.529q.126-.943.25-1.82zm-.256 1.856-3.965-.529q-.112.848-.286 1.776l3.931.737 3.932.737q.21-1.12.353-2.192zm-.32 1.984-3.922-.784q-.222 1.11-.367 2.272l3.969.496 3.97.496q.11-.886.272-1.695zm-.32 1.984-3.967-.512c-.167 1.296-.42 3.131-.76 5.514l3.959.566 3.96.566c.342-2.396.601-4.273.775-5.622zm-.768 5.568-3.958-.576a333 333 0 0 1-1.202 7.589l3.944.667 3.944.667q.711-4.198 1.23-7.771zm-1.216 7.68v4h.832v-8h-.832zm.832 0 3.737 1.426q1.857-4.865 3.074-8.07l-3.739-1.42-3.74-1.42a6509 6509 0 0 1-3.07 8.058zm3.072-8.064 3.748 1.396q1.215-3.261 1.981-5.303l-3.745-1.405-3.745-1.404q-.77 2.053-1.987 5.32zm1.984-5.312 3.761 1.36a133 133 0 0 1 2.3-5.901l-3.693-1.539-3.692-1.539a141 141 0 0 0-2.437 6.258zm2.368-6.08 3.692 1.539c.841-2.019 1.504-3.499 1.998-4.486l-3.578-1.789-3.578-1.789c-.615 1.232-1.36 2.909-2.226 4.986zm2.112-4.736.332 3.986q1.635-.136 3.797-.4l-.481-3.97-.481-3.97a96 96 0 0 1-3.5.368zm3.648-.384.582 3.957a158 158 0 0 0 4.465-.722l-.695-3.939-.695-3.94q-2.12.375-4.239.687zm4.352-.704.676 3.942q2.225-.381 3.796-.632l-.632-3.95-.632-3.95q-1.63.261-3.884.648zm3.84-.64-3.946-.658a420 420 0 0 0-1.68 10.985l3.962.553 3.962.553a411 411 0 0 1 1.648-10.775zm-1.664 10.88-3.967-.513q-.707 5.465-1.287 10.487l3.974.458 3.974.459q.572-4.963 1.273-10.378zm-1.28 10.432-3.979-.413q-.513 4.938-.898 8.924l3.981.385 3.981.385q.382-3.951.894-8.868zm-.896 8.896-3.981-.385a541 541 0 0 0-.71 7.93l3.987.327 3.987.327q.317-3.874.698-7.814zm-.704 7.872-3.986-.332q-.32 3.837-.64 7.61l3.986.338 3.986.338q.32-3.78.64-7.622zm-.64 7.616-.702-3.938-11.136 1.984.702 3.938.702 3.938 11.136-1.984zM54.712 56.36h4c0 .116-.006.206-.003.137l.008-.12.034-.535.143-2.084-3.99-.278-3.99-.278c-.118 1.681-.202 2.888-.202 3.158zm.192-2.88 3.99.278c.123-1.763.33-3.99.626-6.691l-3.976-.435-3.976-.435c-.302 2.76-.521 5.099-.654 7.005zm.64-6.848 3.976.435q.446-4.073.89-7.691l-3.97-.488-3.97-.488a595 595 0 0 0-.902 7.797zm.896-7.744 3.971.48c.293-2.43.58-4.36.855-5.816l-3.93-.744-3.93-.744c-.322 1.7-.633 3.824-.937 6.345zm.896-6.08v-4h-.576v8h.576zm-.576 0-3.8-1.25q-1.552 4.722-3.818 10.388l3.714 1.486 3.714 1.486q2.342-5.854 3.99-10.86zm-3.904 10.624-3.728-1.45q-2.297 5.91-4.507 12.995l3.819 1.191 3.819 1.191q2.142-6.866 4.325-12.477zM48.44 56.168l-.114-3.998c-1.537.044-2.89.11-4.045.203l.319 3.987.319 3.987c.978-.078 2.186-.14 3.635-.18zm-3.84.192-.16-3.997q-1.653.066-3.794.196l.242 3.993.242 3.993q2.083-.126 3.63-.188zm-3.712.192 3.985.344 2.048-23.744-3.985-.344-3.985-.344-2.048 23.744zm2.048-23.744v-4h-.96v8h.96zm-.96 0-3.984-.362c0-.004-.018.158-.107.583-.082.39-.202.906-.366 1.56l3.881.971 3.88.97c.33-1.315.604-2.532.68-3.36zM41.4 35.56l-3.873-1q-.506 1.96-1.206 4.572l3.863 1.036 3.863 1.037q.707-2.638 1.226-4.645zm-1.216 4.608-3.857-1.06a227 227 0 0 1-1.446 5.03l3.831 1.15 3.831 1.15q.781-2.605 1.498-5.21zm-1.472 5.12-3.845-1.102q-1.44 5.022-2.206 7.67a592 592 0 0 1-.762 2.615l-.054.176 3.795 1.265 3.795 1.265c.163-.491 1.227-4.174 3.122-10.787zM35.64 55.912l-.266-3.991-10.56.704.266 3.991.266 3.991 10.56-.704zm31.497 1.152-3.934-.725-1.02 5.54 5.566-.862zm8.384-45.504-.34-3.985-3.04.26-.554 3zm20.224-1.728 3.812 1.213 1.816-5.708-5.969.51zm-.768 2.88 3.868 1.018.022-.084.019-.084zm-.64 2.56-3.891-.927-.017.071-.014.072zm-.448 2.304.307 3.988 3.059-.235.566-3.016zm-2.368.128v4h.083l.084-.003zm-3.136.064v4h.08l.08-.003zm-3.968 0v-4h-3.294L80.491 17zm-2.24 11.456-3.926-.768-.983 5.027 5.116-.264zm3.712-.192.207 3.995.078-.004.077-.007zm5.056-.128 3.96.566.8-5.597-5.544 1.109zm-.256 1.792-3.96-.566-.018.13-.01.13zm-.192 1.728 3.948.646.006-.04.006-.04zm-.576 3.52.784 3.922 2.716-.543.447-2.733zm-2.048.064v-4h-.181l-.181.016zm-2.944.128.307 3.988.027-.002.028-.002zm-3.648.128-.25-3.992-3.116.195-.567 3.07zM79.105 48.04l-3.933-.727-1.027 5.558 5.583-.88zm9.344-1.472 3.985.35.447-5.097-5.055.796zm-.64 7.296.612 3.953 3.099-.48.274-3.123zm-20.672 3.2 3.934.725 8.384-45.504-3.934-.725-3.934-.725-8.384 45.504zm8.384-45.504.34 3.986 20.224-1.728-.34-3.986-.34-3.985L75.18 7.575zm20.224-1.728-3.812-1.213a36 36 0 0 0-.865 3.243l3.909.85 3.909.85q.28-1.291.67-2.517zm-.768 2.88-3.868-1.018q-.333 1.266-.663 2.651l3.891.927 3.891.926q.31-1.302.617-2.468zm-.64 2.56-3.922-.784q-.26 1.298-.458 2.35l3.932.738 3.932.737q.186-.994.438-2.256zm-.448 2.304-.307-3.988a69 69 0 0 1-2.227.12l.166 3.996.166 3.997a76 76 0 0 0 2.509-.137zm-2.368.128v-4q-1.62 0-3.296.067l.16 3.997.16 3.997q1.523-.06 2.976-.061zm-3.136.064v-4h-2.752v8h2.752zm-2.752 0v-4h-1.216v8h1.216zm-1.216 0L80.491 17l-2.24 11.456 3.926.768 3.926.768 2.24-11.456zm-2.24 11.456.207 3.995 3.712-.192-.207-3.995-.207-3.995-3.712.192zm3.712-.192.362 3.984q.524-.048 1.046-.048v-8q-.885 0-1.77.08zm1.408-.064v4h1.472v-8h-1.472zm1.472 0v4h1.28v-8h-1.28zm1.28 0v4c.48 0 1.085-.023 1.68-.142l-.784-3.922-.784-3.922q.087-.017.112-.02h.003a3 3 0 0 1-.227.006zm.896-.064-3.96-.566-.064.448-.064.448-.128.896 3.96.566 3.96.566.064-.448.064-.448.128-.896zm-.256 1.792-3.988-.307q-.053.69-.164 1.47l3.96.565 3.96.566q.145-1.016.22-1.987zm-.192 1.728-3.948-.646-.576 3.52 3.948.646 3.947.646.577-3.52zm-.576 3.52-.785-3.922q.071-.014.096-.016l.014-.002a2 2 0 0 1-.157.004v8c.474 0 1.042-.027 1.617-.142zm-.832.064v-4h-1.216v8h1.216zm-1.216 0-.362-3.984q-.51.047-1.11.048v8q.935 0 1.834-.08zm-1.472.064v-4q-.935 0-1.834.08l.362 3.984.362 3.984q.51-.047 1.11-.048zm-1.472.064-.307-3.988q-.668.051-1.421.052v8q1.038 0 2.035-.076zm-1.728.064v-4q-1.037 0-2.17.072l.25 3.992.25 3.992a27 27 0 0 1 1.67-.056zm-1.92.064-3.933-.727-2.176 11.776 3.933.727 3.933.727 2.176-11.776zM79.105 48.04l.623 3.951 9.344-1.472-.623-3.951-.623-3.951-9.343 1.472zm9.344-1.472-3.985-.35-.64 7.296 3.985.35 3.985.35.64-7.297zm-.64 7.296-.612-3.953-20.672 3.2.612 3.953.612 3.953 20.672-3.2zm6.453 1.92-1.928 3.505.034.019.034.018zm-4.928-4.416L85.77 49.55l-1.164 2.28 1.584 2.012zm4.736-9.28 3.461-2.004-3.683-6.362-3.341 6.548zm2.048 2.304L93.6 47.501l.035.029.036.027zm2.944 1.728-1.539 3.692zm5.76-.384-2.219-3.328-.033.022-.033.022zm-.512-6.848 2.686-2.964zm-4.609-3.648-2.332 3.25.02.013.019.014zm-4.607-4.032-2.99 2.657.039.044.04.043zm-.128-11.392 3.304 2.253.012-.017.012-.017zm4.992-4.992 2.266 3.296.023-.016.023-.016zm6.528-3.328 1.264 3.795.021-.007.021-.007zm10.815-.448-1.485 3.714.054.021.054.02zm3.073 2.368 3.288-2.277zm1.088 5.376-3.96-.566-.04.282v.284zm-.064.896 3.959.566zm-.192.96-3.881-.97-.05.2-.029.204zm-.129.96 1.113 3.842 2.53-.733.327-2.613zm-9.279 2.688-3.881-.97-1.687 6.747 6.68-1.935zm.192-1.024-3.881-.97-.059.234-.03.24zm-.577-3.776-3.254 2.325.095.133.106.126zm-3.392-.256 1.872 3.535.079-.042.078-.045zm-1.984 1.664-3.087-2.543-.009.01-.008.01zm.897 5.824-2.527 3.1.062.052.065.048zm4.096 2.752-2.086 3.413.028.018.029.017zm2.432 2.048-2.894 2.762.032.034.033.032zm2.304 3.712-3.707 1.503.024.061.027.06zm-1.344 14.272-3.338-2.205-.014.02-.013.022zm-6.272 5.632 1.788 3.578.023-.012.023-.011zm-8.769 1.984v-4c-.979 0-2.052-.251-3.26-.886l-1.86 3.542-1.859 3.542c2.205 1.157 4.545 1.802 6.98 1.802zm-5.12-1.344 1.928-3.505c-1.115-.613-2.368-1.677-3.713-3.385l-3.142 2.474-3.144 2.474c1.813 2.303 3.846 4.183 6.144 5.447zm-4.927-4.416 3.562 1.818 4.736-9.28-3.562-1.818-3.563-1.818-4.736 9.28zm4.736-9.28-3.462 2.004c.763 1.319 1.802 2.445 2.993 3.409l2.517-3.109 2.516-3.109c-.6-.486-.927-.896-1.103-1.2zm2.048 2.304-2.446 3.165a17 17 0 0 0 3.851 2.255l1.538-3.692 1.539-3.692a9 9 0 0 1-2.037-1.201zm2.944 1.728-1.539 3.692c1.28.533 2.705.948 4.163.948v-8c.022 0-.054.002-.253-.046a6 6 0 0 1-.833-.286zm2.624.64v4c1.99 0 3.823-.63 5.42-1.74l-2.284-3.284-2.285-3.284c-.365.255-.623.308-.851.308zm3.136-1.024 2.218 3.328c2.047-1.364 3.317-3.485 3.317-6.08h-8c0-.01.002-.06.022-.14.02-.082.054-.172.102-.258.102-.183.196-.228.122-.178zm1.535-2.752h4c0-2.879-1.37-5.256-3.361-7.06l-2.686 2.964-2.687 2.964c.74.67.734 1.024.734 1.132zm-2.047-4.096 2.686-2.964a51 51 0 0 0-5.001-3.96l-2.294 3.276-2.293 3.277a43 43 0 0 1 4.215 3.335zm-4.609-3.648 2.333-3.25a28 28 0 0 1-4.03-3.526l-2.91 2.744-2.91 2.744a36 36 0 0 0 5.185 4.537zm-4.607-4.032 2.99-2.657c-.749-.842-1.038-1.657-1.038-2.591h-8c0 2.992 1.075 5.675 3.058 7.905zm-2.048-5.248h4c0-1.394.386-2.66 1.224-3.89l-3.304-2.254-3.305-2.253c-1.722 2.524-2.615 5.354-2.615 8.397zm1.92-6.144 3.328 2.219c.976-1.465 2.268-2.773 3.93-3.915l-2.267-3.296-2.266-3.296c-2.434 1.674-4.47 3.694-6.054 6.07zm4.992-4.992 2.312 3.264a20.8 20.8 0 0 1 5.48-2.797l-1.264-3.795-1.265-3.795a28.8 28.8 0 0 0-7.576 3.859zm6.528-3.328 1.306 3.78c2.003-.691 3.778-.996 5.35-.996v-8c-2.61 0-5.272.506-7.963 1.435zm6.656-1.216v4c1.027 0 1.904.174 2.674.482l1.485-3.714 1.486-3.714c-1.79-.716-3.686-1.054-5.645-1.054zm4.159.768-1.377 3.755c.515.189.868.466 1.161.89l3.289-2.277 3.288-2.277a10.27 10.27 0 0 0-4.983-3.847zm3.073 2.368-3.289 2.277c.156.225.44.83.44 2.203h8c0-2.382-.482-4.763-1.863-6.757zm1.151 4.48h-4q0 .16-.023.33l3.96.566 3.959.566q.104-.727.104-1.462zm-.063.896h-4q0 .16-.024.33l3.96.566 3.959.566q.104-.727.105-1.462zm-.064.896-3.96-.566a6 6 0 0 1-.113.556l3.881.97 3.88.97c.113-.453.206-.91.271-1.364zm-.192.96-3.96-.566q-.07.487-.138 1.03l3.969.496 3.97.496q.06-.482.118-.89zm-.129.96-1.112-3.842-9.28 2.688 1.113 3.842 1.112 3.842 9.28-2.688zm-9.279 2.688 3.88.97q.186-.74.281-1.498l-3.969-.496-3.97-.496a5 5 0 0 1-.103.55zm.192-1.024 3.88.97a8.2 8.2 0 0 0 .248-1.994h-8q.002.004-.009.054zm.128-1.024h4c0-1.577-.252-3.683-1.651-5.336l-3.054 2.584-3.053 2.584c-.256-.303-.305-.532-.294-.489.004.016.018.075.03.19.012.113.022.267.022.467zm-.705-2.752 3.255-2.325c-1.166-1.633-2.947-2.571-4.982-2.571v8c-.202 0-.521-.046-.866-.225a1.9 1.9 0 0 1-.661-.554zm-1.727-.896v-4c-1.553 0-2.924.74-3.693 1.192l2.028 3.448 2.029 3.448q.174-.102.272-.15c.068-.034.098-.046.095-.045 0 0-.058.023-.165.048-.104.023-.3.059-.566.059zm-1.665.64-1.871-3.535c-1.255.664-2.315 1.582-3.2 2.656l3.087 2.543 3.088 2.543c.31-.376.572-.568.768-.672zm-1.984 1.664-3.104-2.522c-1.115 1.371-1.727 3.024-1.727 4.826h8l-.006.05a1 1 0 0 1-.024.093c-.025.07-.05.095-.034.075zm-.831 2.304h-4c0 2.685 1.176 4.971 3.201 6.62l2.527-3.1 2.526-3.1c-.19-.156-.231-.244-.232-.247a.1.1 0 0 1-.011-.032.7.7 0 0 1-.011-.141zm1.728 3.52-2.4 3.2a56 56 0 0 0 4.41 2.965l2.086-3.413 2.085-3.413a48 48 0 0 1-3.781-2.539zm4.096 2.752-2.029 3.448c.284.166.804.563 1.567 1.362l2.894-2.762 2.893-2.762c-1.029-1.078-2.13-2.047-3.297-2.734zm2.432 2.048-2.829 2.828c.411.412.921 1.143 1.426 2.387l3.707-1.503 3.706-1.503c-.775-1.914-1.801-3.657-3.182-5.037zm2.304 3.712-3.656 1.625c.378.849.68 2.224.68 4.327h8c0-2.761-.381-5.354-1.369-7.577zm1.024 5.952h-4c0 2.457-.603 4.446-1.706 6.115l3.338 2.205 3.337 2.205c2.055-3.11 3.031-6.667 3.031-10.525zm-2.368 8.32-3.365-2.163c-1.138 1.77-2.689 3.18-4.742 4.24l1.835 3.555 1.834 3.555c3.237-1.671 5.868-4.016 7.802-7.024zm-6.272 5.632-1.789-3.578c-2.046 1.023-4.349 1.562-6.98 1.562v8c3.77 0 7.312-.784 10.557-2.406zm13.611.64-1.927 3.505.034.019.034.018zm-4.927-4.416-3.563-1.818-1.164 2.28 1.584 2.012zm4.736-9.28 3.461-2.004-3.683-6.362-3.341 6.548zm2.048 2.304-2.517 3.109.035.029.036.027zm2.944 1.728-1.539 3.692zm5.76-.384-2.219-3.328-.033.022-.033.022zm-.512-6.848 2.686-2.964zm-4.609-3.648-2.332 3.25.019.013.02.014zm-4.608-4.032-2.989 2.657.039.044.04.043zm-.128-11.392 3.305 2.253.012-.017.012-.017zm4.993-4.992 2.266 3.296.023-.016.023-.016zm6.528-3.328 1.264 3.795.021-.007.021-.007zm10.815-.448-1.485 3.714.054.021.054.02zm3.073 2.368 3.288-2.277zm1.088 5.376-3.96-.566-.04.282v.284zm-.064.896 3.959.566zm-.192.96-3.881-.97-.05.2-.029.204zm-.129.96 1.113 3.842 2.53-.733.327-2.613zm-9.279 2.688-3.881-.97-1.687 6.747 6.68-1.935zm.192-1.024-3.881-.97-.059.234-.03.24zm-.577-3.776-3.254 2.325.095.133.106.126zm-3.392-.256 1.872 3.535.079-.042.078-.045zm-1.984 1.664-3.087-2.543-.009.01-.008.01zm.897 5.824-2.527 3.1.062.052.065.048zm4.096 2.752-2.086 3.413.028.018.029.017zm2.432 2.048-2.894 2.762.032.034.033.032zm2.304 3.712-3.707 1.503.024.061.027.06zm-1.344 14.272-3.338-2.205-.014.02-.013.022zm-6.272 5.632 1.788 3.578.023-.012.023-.011zm-8.768 1.984v-4c-.98 0-2.053-.251-3.261-.886l-1.86 3.542-1.859 3.542c2.205 1.157 4.545 1.802 6.98 1.802zm-5.121-1.344 1.928-3.505c-1.115-.613-2.368-1.677-3.713-3.385l-3.142 2.474-3.143 2.474c1.812 2.303 3.845 4.183 6.143 5.447zm-4.927-4.416 3.562 1.818 4.736-9.28-3.562-1.818-3.563-1.818-4.736 9.28zm4.736-9.28-3.462 2.004c.763 1.319 1.802 2.445 2.993 3.409l2.517-3.109 2.516-3.109c-.601-.486-.928-.896-1.103-1.2zm2.048 2.304-2.446 3.165a17 17 0 0 0 3.851 2.255l1.539-3.692 1.538-3.692a9 9 0 0 1-2.037-1.201zm2.944 1.728-1.539 3.692c1.28.533 2.705.948 4.163.948v-8c.022 0-.054.002-.253-.046a6 6 0 0 1-.833-.286zm2.624.64v4c1.99 0 3.823-.63 5.42-1.74l-2.284-3.284-2.285-3.284c-.365.255-.623.308-.851.308zm3.136-1.024 2.218 3.328c2.047-1.364 3.317-3.485 3.317-6.08h-8c0-.01.002-.06.022-.14.02-.082.054-.172.102-.258.102-.183.196-.228.122-.178zm1.535-2.752h4c0-2.879-1.37-5.256-3.361-7.06l-2.686 2.964-2.687 2.964c.74.67.734 1.024.734 1.132zm-2.047-4.096 2.686-2.964a51 51 0 0 0-5.001-3.96l-2.294 3.276-2.293 3.277a43 43 0 0 1 4.215 3.335zm-4.609-3.648 2.333-3.25a28 28 0 0 1-4.03-3.526l-2.911 2.744-2.91 2.744a36 36 0 0 0 5.186 4.537zm-4.608-4.032 2.99-2.657c-.748-.842-1.037-1.657-1.037-2.591h-8c0 2.992 1.075 5.675 3.058 7.905zm-2.047-5.248h4c0-1.394.386-2.66 1.224-3.89l-3.305-2.254-3.304-2.253c-1.722 2.524-2.615 5.354-2.615 8.397zm1.919-6.144 3.329 2.219c.976-1.465 2.268-2.773 3.93-3.915l-2.266-3.296-2.267-3.296c-2.434 1.674-4.47 3.694-6.054 6.07zm4.993-4.992 2.312 3.264a20.8 20.8 0 0 1 5.48-2.797l-1.264-3.795-1.265-3.795a28.9 28.9 0 0 0-7.576 3.859zm6.528-3.328 1.306 3.78c2.003-.691 3.778-.996 5.35-.996v-8c-2.61 0-5.272.506-7.963 1.435zm6.656-1.216v4c1.027 0 1.904.174 2.674.482l1.485-3.714 1.486-3.714c-1.79-.716-3.686-1.054-5.645-1.054zm4.159.768-1.377 3.755c.515.189.868.466 1.161.89l3.289-2.277 3.288-2.277a10.27 10.27 0 0 0-4.983-3.847zm3.073 2.368-3.289 2.277c.156.225.44.83.44 2.203h8c0-2.382-.482-4.763-1.863-6.757zm1.151 4.48h-4q0 .16-.023.33l3.96.566 3.959.566q.104-.727.104-1.462zm-.063.896h-4q0 .16-.024.33l3.96.566 3.959.566q.104-.727.105-1.462zm-.064.896-3.96-.566a6 6 0 0 1-.113.556l3.881.97 3.88.97q.171-.681.271-1.364zm-.192.96-3.96-.566q-.07.487-.138 1.03l3.969.496 3.97.496q.06-.482.118-.89zm-.129.96-1.112-3.842-9.28 2.688 1.113 3.842 1.112 3.842 9.28-2.688zm-9.279 2.688 3.88.97q.186-.74.281-1.498l-3.969-.496-3.97-.496a5 5 0 0 1-.103.55zm.192-1.024 3.88.97a8.2 8.2 0 0 0 .248-1.994h-8q.001.004-.009.054zm.128-1.024h4c0-1.577-.252-3.683-1.651-5.336l-3.054 2.584-3.053 2.584c-.256-.303-.305-.532-.294-.489.004.016.018.075.03.19q.02.168.022.467zm-.705-2.752 3.255-2.325c-1.166-1.633-2.947-2.571-4.982-2.571v8c-.202 0-.521-.046-.866-.225a1.9 1.9 0 0 1-.661-.554zm-1.727-.896v-4c-1.553 0-2.924.74-3.693 1.192l2.028 3.448 2.029 3.448q.173-.102.272-.15c.068-.034.098-.046.095-.045 0 0-.058.023-.165.048-.104.023-.3.059-.566.059zm-1.665.64-1.871-3.535c-1.255.664-2.315 1.582-3.2 2.656l3.087 2.543 3.088 2.543c.31-.376.572-.568.768-.672zm-1.984 1.664-3.104-2.522c-1.115 1.371-1.727 3.024-1.727 4.826h8l-.006.05a1 1 0 0 1-.024.093c-.025.07-.05.095-.034.075zm-.831 2.304h-4c0 2.685 1.176 4.971 3.201 6.62l2.527-3.1 2.526-3.1c-.19-.156-.231-.244-.232-.247a.1.1 0 0 1-.011-.032.7.7 0 0 1-.011-.141zm1.728 3.52-2.4 3.2a56 56 0 0 0 4.41 2.965l2.086-3.413 2.085-3.413a48 48 0 0 1-3.781-2.539zm4.096 2.752-2.029 3.448c.284.166.804.563 1.567 1.362l2.894-2.762 2.893-2.762c-1.029-1.078-2.13-2.047-3.297-2.734zm2.432 2.048-2.829 2.828c.411.412.921 1.143 1.426 2.387l3.707-1.503 3.706-1.503c-.775-1.914-1.801-3.657-3.182-5.037zm2.304 3.712-3.656 1.625c.378.849.68 2.224.68 4.327h8c0-2.761-.381-5.354-1.369-7.577zm1.024 5.952h-4c0 2.457-.603 4.446-1.706 6.115l3.338 2.205 3.337 2.205c2.055-3.11 3.031-6.667 3.031-10.525zm-2.368 8.32-3.365-2.163c-1.138 1.77-2.689 3.18-4.742 4.24l1.835 3.555 1.834 3.555c3.237-1.671 5.868-4.016 7.802-7.024zm-6.272 5.632-1.789-3.578c-2.046 1.023-4.349 1.562-6.979 1.562v8c3.769 0 7.311-.784 10.556-2.406zm-92.074 69.728-3.973-.467-.622 5.288 5.253-.875zm.256-2.112 3.97.496zm.256-2.048 3.97.496.004-.035.003-.035zm.384-3.584 3.977.426.008-.07.005-.071zm.128-1.664-3.986-.332zm.128-1.408 3.98.398.44-4.398h-4.42zm-5.568 0v-4h-3.04l-.814 2.929zm-2.56 9.216.54 3.963 2.61-.355.704-2.537zm-3.328.448.398 3.98.066-.006.065-.009zm-3.584.384-.458-3.974-.02.003-.018.002zm-2.048.256-.496-3.969-.016.002-.017.002zm-1.984.256-3.83-1.155-1.775 5.887 6.101-.763zm5.056-16.768 3.83 1.155.003-.013zm4.352-14.72-3.83-1.155-.008.028-.008.028zm2.24-7.552-3.828-1.162-.006.022-.007.023zm1.728-6.016-.293-3.99-2.848.21-.727 2.762zm8.832-.768-.392-3.98h-.006zm8.832-1.216 3.984.356.466-5.217-5.155.924zm-.64 8.128-3.99-.281-.002.026-.002.027zm-.512 9.28-3.994-.213-.002.026v.027zm-.448 9.472-3.994-.219-.003.052-.001.051zm-.32 9.152 3.997.164v-.002zm-.384 9.6.529 3.965 3.337-.445.131-3.364zm-1.92.256.529 3.965zm-1.92.256-.529-3.965-.051.007-.052.008zm-3.52.576-.658-3.946zm-6.336-16.64-3.883-.959-1.225 4.959h5.108zm1.408-.064-.235-3.993h-.007l-.008.001zm2.048-.128-.266-3.991zm1.152-.064v4h4v-4zm.256-3.392 3.98.398zm.512-5.376 3.984.362.002-.028.002-.027zm.256-3.392-3.977-.426-.007.065-.005.066zm.384-3.648 3.979.412.007-.069.005-.068zm.384-5.568 3.99.275.316-4.57-4.572.304zm-.96.064-.266-3.991-2.858.19-.74 2.768zm-1.472 5.504L40.8 90.559l-.01.037-.01.037zm-1.088 33.28 3.973.467q.126-1.074.252-2.083l-3.969-.496-3.97-.496q-.129 1.039-.259 2.141zm.256-2.112 3.97.496q.127-1.024.255-2.048l-3.969-.496-3.97-.496q-.127 1.024-.255 2.048zm.256-2.048 3.977.426.384-3.584-3.977-.426-3.977-.426-.384 3.584zm.384-3.584 3.99.285q.063-.876.124-1.617l-3.986-.332-3.986-.332q-.066.795-.132 1.711zm.128-1.664 3.986.332q.062-.74.122-1.342l-3.98-.398-3.98-.398q-.068.678-.134 1.474zm.128-1.408v-4H39.16v8h5.568zm-5.568 0-3.854-1.071-2.56 9.216 3.854 1.071 3.854 1.071 2.56-9.216zm-2.56 9.216-.54-3.963q-1.401.19-3.317.446l.529 3.965.529 3.965q1.924-.257 3.34-.45zm-3.328.448-.398-3.98q-1.945.195-3.645.39l.459 3.974.459 3.974q1.629-.189 3.523-.378zm-3.584.384-.496-3.969-2.048.256.496 3.969.496 3.969 2.048-.256zm-2.048.256-.529-3.965q-.943.126-1.951.252l.496 3.969.496 3.969q1.04-.13 2.017-.26zm-1.984.256 3.83 1.155 5.056-16.768-3.83-1.155-3.83-1.155-5.056 16.768zm5.056-16.768 3.833 1.142q.896-3.003 2.046-6.841L32.76 101l-3.831-1.15q-1.153 3.844-2.05 6.856zM32.76 101l3.831 1.149a625 625 0 0 0 2.32-7.922l-3.847-1.099-3.846-1.099a620 620 0 0 1-2.29 7.822zm2.304-7.872 3.83 1.155a810 810 0 0 0 2.25-7.59l-3.84-1.117-3.84-1.117a801 801 0 0 1-2.23 7.514zm2.24-7.552 3.828 1.162a176 176 0 0 0 1.768-6.16l-3.868-1.018-3.868-1.018c-.41 1.556-.97 3.51-1.687 5.872zm1.728-6.016.293 3.99q4.407-.325 8.937-.778l-.398-3.98-.398-3.98q-4.43.442-8.727.759zm8.832-.768.393 3.98q4.694-.462 9.144-1.259l-.705-3.937-.705-3.937q-4.125.738-8.52 1.172zm8.832-1.216-3.984-.356a443 443 0 0 0-.646 8.203l3.99.281 3.99.281q.318-4.515.634-8.053zm-.64 8.128-3.993-.228q-.257 4.488-.513 9.295l3.994.213 3.994.213q.255-4.793.512-9.265zm-.512 9.28-3.997-.16q-.19 4.772-.445 9.413l3.994.219 3.994.219q.258-4.703.45-9.531zm-.448 9.472-3.998-.116a791 791 0 0 1-.319 9.106l3.997.162 3.997.162q.192-4.758.321-9.198zm-.32 9.152-3.997-.164q-.192 4.676-.384 9.608l3.997.156 3.997.156q.192-4.924.384-9.592zm-.384 9.6-.529-3.965-1.92.256.529 3.965.529 3.965 1.92-.256zm-1.92.256-.529-3.965-1.92.256.529 3.965.529 3.965 1.92-.256zm-1.92.256-.632-3.95a658 658 0 0 0-3.546.58l.658 3.946.658 3.946q1.909-.319 3.494-.572zm-3.52.576-.658-3.946-3.456.576.658 3.946.658 3.946 3.456-.576zm-6.336-16.64v4c.398 0 .985-.03 1.657-.072l-.249-3.992-.25-3.992a26 26 0 0 1-1.158.056zm1.408-.064.235 3.993a235 235 0 0 0 2.08-.13l-.267-3.991-.266-3.991q-.942.063-2.017.126zm2.048-.128.266 3.991a55 55 0 0 1 .909-.054c.051-.003.031-.001-.023-.001v-8c-.296 0-.847.035-1.418.073zm1.152-.064h4c0-.32.062-1.25.236-2.994l-3.98-.398-3.98-.398c-.167 1.669-.276 3.001-.276 3.79zm.256-3.392 3.98.398q.258-2.58.516-5.412l-3.984-.362-3.984-.362a602 602 0 0 1-.508 5.34zm.512-5.376 3.988.307q.128-1.67.257-3.403l-3.989-.296-3.99-.295q-.127 1.722-.254 3.38zm.256-3.392 3.977.426q.193-1.8.386-3.662l-3.979-.412-3.979-.412q-.191 1.85-.382 3.634zm.384-3.648 3.99.275.385-5.568-3.991-.275-3.99-.275-.385 5.568zm.384-5.568-.266-3.991-.96.064.266 3.991.266 3.991.96-.064zm-.96.064-3.864-1.033-1.472 5.504 3.864 1.033 3.864 1.033L50 87.121zm-1.472 5.504-3.883-.96-3.968 16.065 3.883.959 3.883.959 3.968-16.064zm15.08 29.76 3.31-2.245zm-.897-22.208 3.847 1.099.003-.011zm4.672-10.56 3.364 2.165zm7.105-7.488 2.266 3.296.01-.007zm14.528-.448-2.943 2.71zm2.175 8.192 1.033 3.864 2.277-.608.571-2.286zm-8.383 2.24-3.607 1.73 1.435 2.99 3.204-.855zm-5.056.896-3.29-2.277-.02.029-.019.03zm-3.2 5.952-3.656-1.625zm-1.856 4.736-3.785-1.295-.016.045-.014.045zm-1.216 4.544-3.913-.83zm.127 6.336 3.522-1.896-.073-.137-.084-.13zm3.52-.064 2.456 3.157.053-.041.052-.043zm2.112-2.368-3.234-2.353-.036.049-.034.051zm1.344-2.816 1.497-3.709-4.356-1.758-1.041 4.581zm7.297 2.944 3.664 1.603 1.65-3.772-3.818-1.54zm-7.489 10.56 2.453 3.16.007-.005zm-8.192 3.328v-4c-1.17 0-2.204-.433-3.28-2.021l-3.312 2.245-3.31 2.245c2.337 3.447 5.697 5.531 9.902 5.531zm-6.591-3.776 3.31-2.245c-1.098-1.62-1.87-4.189-1.87-8.123h-8c0 4.855.934 9.199 3.249 12.613zm-2.56-10.368h4c0-3.636.502-7.213 1.51-10.741l-3.847-1.099-3.846-1.099a46.9 46.9 0 0 0-1.817 12.939zm1.663-11.84 3.85 1.088c1.012-3.582 2.415-6.733 4.186-9.483l-3.363-2.165-3.364-2.165c-2.24 3.48-3.951 7.369-5.158 11.637zm4.672-10.56 3.364 2.165c1.752-2.72 3.762-4.813 6.007-6.357l-2.266-3.296-2.267-3.296c-3.216 2.211-5.942 5.11-8.2 8.619zm7.105-7.488 2.276 3.289c2.114-1.464 4.373-2.169 6.875-2.169v-8c-4.153 0-7.996 1.215-11.428 3.591zm9.151-2.88v4c.907 0 1.652.293 2.434 1.142l2.942-2.71 2.943-2.71c-2.205-2.393-5.043-3.722-8.318-3.722zm5.376 2.432-2.942 2.71c.66.717 1.182 1.84 1.182 3.818h8c0-3.484-.971-6.712-3.297-9.238zm2.24 6.528h-4v.768h8v-.768zm0 .768h-4v.448h8v-.448zm0 .448h-4c0-.155.013-.277.025-.358.011-.081.024-.137.03-.164l3.882.97 3.88.97c.095-.379.183-.867.183-1.418zm-.064.448-1.032-3.865-8.384 2.24 1.032 3.865 1.033 3.865 8.384-2.24zm-8.383 2.24 3.606-1.73c-.664-1.383-2.268-3.87-5.398-3.87v8c-.366 0-.723-.075-1.043-.208a2.4 2.4 0 0 1-.662-.408c-.236-.21-.237-.318-.11-.053zm-1.793-1.6v-4c-3.19 0-5.328 2.451-6.552 4.22l3.288 2.276 3.29 2.277c.21-.305.392-.533.54-.697a2.3 2.3 0 0 1 .28-.275c.08-.061-.224.199-.846.199zm-3.263 2.496-3.329-2.219c-1.262 1.894-2.433 4.086-3.527 6.546l3.656 1.625 3.655 1.625c.954-2.148 1.916-3.924 2.873-5.358zm-3.2 5.952-3.656-1.625a62 62 0 0 0-1.985 5.066l3.785 1.295 3.784 1.295a53 53 0 0 1 1.727-4.406zm-1.856 4.736-3.815-1.205a53 53 0 0 0-1.314 4.919l3.912.83 3.913.83q.4-1.891 1.118-4.169zm-1.216 4.544-3.913-.83c-.327 1.538-.536 2.995-.536 4.286h8c0-.501.09-1.348.361-2.626zm-.448 3.456h-4c0 1.526.187 3.45 1.21 5.043l3.365-2.163 3.365-2.163c.16.248.158.373.126.211-.03-.15-.066-.445-.066-.928zm.575 2.88-3.521 1.896a5.56 5.56 0 0 0 2.063 2.172c.95.562 1.956.764 2.867.764v-8c.27 0 .72.064 1.202.348.485.287.77.661.911.924zm1.409.832v4c1.886 0 3.444-.865 4.567-1.739l-2.456-3.157-2.455-3.157c-.18.14-.25.164-.21.147.047-.021.243-.094.553-.094zm2.111-.896 2.561 3.073c1.089-.907 2.035-1.984 2.856-3.188l-3.305-2.253-3.304-2.253c-.46.673-.92 1.175-1.368 1.548zm2.112-2.368 3.235 2.353c.938-1.289 1.654-2.718 2.01-4.283l-3.9-.886-3.901-.886c-.071.312-.25.761-.678 1.349zm1.344-2.816-1.496 3.709 7.296 2.944 1.496-3.709 1.497-3.709-7.296-2.944zm7.297 2.944-3.665-1.603c-1.929 4.409-4.08 7.291-6.282 9.008l2.459 3.155 2.459 3.155c3.599-2.806 6.44-6.963 8.693-12.112zm-7.489 10.56-2.452-3.16c-2.426 1.883-4.314 2.488-5.74 2.488v8c3.78 0 7.354-1.614 10.645-4.168zm11.716-.448 3.311-2.245zm-.895-22.208 3.846 1.099.003-.011zm4.671-10.56 3.364 2.165zm7.105-7.488 2.266 3.296.01-.007zm14.528-.448-2.943 2.71zm2.175 8.192 1.033 3.864 2.277-.608.571-2.286zm-8.384 2.24-3.606 1.73 1.435 2.99 3.204-.855zm-5.056.896-3.288-2.277-.02.029-.02.03zm-3.2 5.952-3.655-1.625zm-1.855 4.736-3.785-1.295-.016.045-.014.045zm-1.216 4.544-3.913-.83zm.127 6.336 3.522-1.896-.073-.137-.084-.13zm3.52-.064 2.456 3.157.053-.041.052-.043zm2.112-2.368-3.234-2.353-.036.049-.034.051zm1.344-2.816 1.497-3.709-4.356-1.758-1.041 4.581zm7.297 2.944 3.664 1.603 1.65-3.772-3.818-1.54zm-7.489 10.56 2.453 3.16.006-.005zm-8.192 3.328v-4c-1.17 0-2.204-.433-3.28-2.021l-3.312 2.245-3.31 2.245c2.336 3.447 5.697 5.531 9.902 5.531zm-6.591-3.776 3.31-2.245c-1.098-1.62-1.87-4.189-1.87-8.123h-8c0 4.855.934 9.199 3.249 12.613zm-2.56-10.368h4c0-3.636.502-7.213 1.51-10.741l-3.847-1.099-3.846-1.099a46.9 46.9 0 0 0-1.818 12.939zm1.663-11.84 3.85 1.088c1.012-3.582 2.415-6.733 4.186-9.483l-3.364-2.165-3.363-2.165c-2.24 3.48-3.952 7.369-5.158 11.637zm4.672-10.56 3.364 2.165c1.752-2.72 3.762-4.813 6.007-6.357l-2.266-3.296-2.267-3.296c-3.216 2.211-5.942 5.11-8.2 8.619zm7.105-7.488 2.276 3.289c2.114-1.464 4.373-2.169 6.875-2.169v-8c-4.153 0-7.996 1.215-11.428 3.591zm9.151-2.88v4c.907 0 1.652.293 2.434 1.142l2.943-2.71 2.942-2.71c-2.205-2.393-5.043-3.722-8.319-3.722zm5.377 2.432-2.943 2.71c.661.717 1.183 1.84 1.183 3.818h8c0-3.484-.972-6.712-3.298-9.238zm2.24 6.528h-4v.768h8v-.768zm0 .768h-4v.448h8v-.448zm0 .448h-4a2.5 2.5 0 0 1 .055-.522l3.88.97 3.881.97c.095-.379.184-.867.184-1.418zm-.065.448-1.032-3.865-8.384 2.24 1.032 3.865 1.033 3.865 8.384-2.24zm-8.384 2.24 3.607-1.73c-.664-1.383-2.268-3.87-5.398-3.87v8c-.366 0-.723-.075-1.043-.208-.31-.13-.529-.29-.662-.408-.236-.21-.237-.318-.11-.053zm-1.791-1.6v-4c-3.191 0-5.33 2.451-6.553 4.22l3.288 2.276 3.289 2.277a7 7 0 0 1 .54-.697c.15-.167.245-.247.281-.275.081-.061-.224.199-.845.199zm-3.265 2.496-3.328-2.219c-1.262 1.894-2.433 4.086-3.527 6.546l3.656 1.625 3.655 1.625c.954-2.148 1.916-3.924 2.873-5.358zm-3.2 5.952-3.655-1.625a62 62 0 0 0-1.985 5.066l3.785 1.295 3.784 1.295a53 53 0 0 1 1.727-4.406zm-1.855 4.736-3.815-1.205a53 53 0 0 0-1.314 4.919l3.912.83 3.913.83q.4-1.891 1.118-4.169zm-1.216 4.544-3.913-.83c-.327 1.538-.535 2.995-.535 4.286h8c0-.501.09-1.348.36-2.626zm-.448 3.456h-4c0 1.526.187 3.45 1.21 5.043l3.365-2.163 3.365-2.163c.16.248.158.373.126.211-.03-.15-.066-.445-.066-.928zm.575 2.88-3.521 1.896a5.56 5.56 0 0 0 2.063 2.172c.95.562 1.956.764 2.867.764v-8c.27 0 .72.064 1.202.348.485.287.77.661.911.924zm1.409.832v4c1.886 0 3.444-.865 4.567-1.739l-2.456-3.157-2.455-3.157c-.18.14-.25.164-.21.147.047-.021.243-.094.553-.094zm2.111-.896 2.561 3.073c1.089-.907 2.035-1.984 2.856-3.188l-3.305-2.253-3.304-2.253c-.46.673-.92 1.175-1.368 1.548zm2.112-2.368 3.235 2.353c.938-1.289 1.654-2.718 2.01-4.283l-3.901-.886-3.9-.886c-.071.312-.25.761-.678 1.349zm1.344-2.816-1.496 3.709 7.296 2.944 1.497-3.709 1.496-3.709-7.296-2.944zm7.297 2.944-3.665-1.603c-1.929 4.409-4.079 7.291-6.282 9.008l2.458 3.155 2.459 3.155c3.6-2.806 6.442-6.963 8.694-12.112zm-7.489 10.56-2.452-3.16c-2.426 1.883-4.314 2.488-5.74 2.488v8c3.78 0 7.354-1.614 10.645-4.168zm11.332.192 3.088-2.543zm-1.792-17.536-3.904-.868zm2.496-7.936 3.702 1.517zm3.712-7.232 3.378 2.143.005-.008zm7.808-8.768-2.436-3.172zm15.169-1.408-2.784 2.873.046.044.047.043zm2.944 4.992-3.861 1.046.002.01.003.01zm-1.536 20.48-3.765-1.352-.004.01-.003.011zm-6.016 11.072-3.098-2.531-.017.021-.017.022zm-7.936 7.168 2.018 3.453.008-.005.008-.004zm.576-10.048-2.604-3.037-.021.019-.022.019zm3.776-4.864 3.546 1.85.008-.015.008-.016zm2.304-6.272-3.894-.916zm.575-8.064-3.951.624.003.017.003.017zm-.832-2.112 3.255-2.325zm-7.295 1.28 2.662 2.985.022-.02.022-.02zm-3.969 5.376-3.591-1.76-.007.013-.007.014zm-2.367 6.528-3.89-.933zm.192 8.64-3.351 2.185.022.034.024.034zm-.897 11.968v-4c-1.619 0-2.791-.552-3.824-1.807l-3.088 2.543-3.087 2.543c2.551 3.097 5.987 4.721 9.999 4.721zm-6.912-3.264 3.088-2.543c-.951-1.155-1.775-3.355-1.775-7.313h-8c0 4.831.967 9.202 3.6 12.399zm-2.687-9.856h4c0-2.105.258-4.372.8-6.812l-3.905-.868-3.904-.868c-.653 2.936-.991 5.789-.991 8.548zm.895-7.68 3.905.868a45 45 0 0 1 2.293-7.287l-3.702-1.517-3.701-1.517a53 53 0 0 0-2.699 8.585zm2.496-7.936 3.702 1.517a42 42 0 0 1 3.388-6.606l-3.378-2.143-3.377-2.143a50 50 0 0 0-4.036 7.858zm3.712-7.232 3.383 2.135c2.045-3.241 4.341-5.794 6.862-7.73l-2.437-3.173-2.436-3.172c-3.367 2.586-6.277 5.878-8.754 9.805zm7.808-8.768 2.437 3.172c2.351-1.806 4.607-2.564 6.844-2.564v-8c-4.249 0-8.18 1.503-11.717 4.22zm9.281-3.392v4c1.89 0 2.714.479 3.104.857l2.784-2.873 2.783-2.873c-2.34-2.267-5.442-3.111-8.671-3.111zm5.888 1.984-2.691 2.96c.78.709 1.395 1.679 1.774 3.078l3.861-1.046 3.86-1.046c-.73-2.697-2.078-5.055-4.114-6.906zm2.944 4.992-3.856 1.066c.455 1.643.687 3.374.687 5.206h8c0-2.52-.321-4.97-.976-7.338zm.831 6.272h-4c0 4.657-.722 8.931-2.132 12.856l3.765 1.352 3.764 1.352c1.748-4.865 2.603-10.062 2.603-15.56zm-2.367 14.208-3.772-1.331c-1.41 3.993-3.207 7.259-5.342 9.872l3.098 2.531 3.097 2.531c2.815-3.445 5.028-7.561 6.69-12.272zm-6.016 11.072-3.132-2.488c-2.235 2.812-4.524 4.844-6.839 6.212l2.035 3.444 2.034 3.444c3.317-1.96 6.318-4.707 9.033-8.124zm-7.936 7.168-2.019-3.453c-2.327 1.36-4.28 1.885-5.918 1.885v8c3.398 0 6.736-1.097 9.955-2.979zm-4.48-8.128v4c2.902 0 5.527-1.001 7.702-2.921l-2.646-2.999-2.647-2.999c-.726.64-1.472.919-2.409.919zm5.056-1.92 2.603 3.037c1.926-1.651 3.488-3.692 4.719-6.051l-3.546-1.85-3.547-1.85c-.817 1.567-1.772 2.768-2.833 3.677zm3.776-4.864 3.562 1.819a31.7 31.7 0 0 0 2.635-7.175l-3.893-.916-3.894-.916a23.7 23.7 0 0 1-1.973 5.369zm2.304-6.272 3.893.916c.564-2.398.875-4.675.875-6.804h-8c0 1.37-.202 3.018-.662 4.972zm.768-5.888h4c0-.931-.088-1.878-.247-2.834l-3.946.658-3.945.658c.097.58.138 1.084.138 1.518zm-.193-2.176 3.952-.624c-.214-1.35-.7-2.653-1.529-3.813l-3.255 2.325-3.254 2.325c.025.035.093.14.135.41zm-.832-2.112 3.255-2.325c-1.346-1.885-3.372-2.571-5.238-2.571v8c.01 0-.186.002-.479-.13-.32-.145-.6-.38-.792-.649zm-1.983-.896v-4c-3.062 0-5.776 1.17-8.019 3.23l2.707 2.946 2.706 2.945c.915-.84 1.742-1.121 2.606-1.121zm-5.312 2.176-2.663-2.985c-2.017 1.799-3.636 4.027-4.897 6.6l3.591 1.761 3.592 1.76c.872-1.778 1.898-3.133 3.039-4.15zm-3.969 5.376-3.605-1.733c-1.174 2.444-2.066 4.887-2.652 7.328l3.89.933 3.889.933c.438-1.826 1.125-3.734 2.084-5.728zm-2.367 6.528-3.89-.933c-.568 2.365-.878 4.626-.878 6.757h8c0-1.367.201-2.989.657-4.891zm-.768 5.824h-4c0 1.878.674 3.567 1.609 5.001l3.351-2.185 3.35-2.185c-.345-.528-.31-.717-.31-.631zm.96 2.816-3.305 2.253c1.327 1.948 3.376 3.155 5.865 3.155v-8c.074 0 .268.023.487.143.21.115.282.232.257.196zm25.738 12.032-1.547 3.689zm-3.328-2.56-3.157 2.456zm-1.28-5.44 3.795 1.265.131-.394.048-.413zm.512-4.352-3.96-.566-.006.047-.006.046zm.896-5.824 3.948.645.002-.013zm1.024-6.336-3.934-.723-.007.039-.007.039zm1.024-5.696-3.931-.737-.005.024-.004.023zm1.536-8.256 3.934.723zm.896-4.8-3.905-.868-.012.056-.011.057zm.576-2.56-.362-3.984-2.884.263-.652 2.822zm1.472-.128.332 3.986.139-.011.137-.022zm1.728-.192.285 3.99.141-.01.14-.02zm1.728-.192-.285-3.99h-.011l-.011.002zm1.728-.128.307 3.988.042-.003.043-.004zm3.904-.384 3.912.834 1.14-5.35-5.444.535zm-1.6 7.424-3.908-.853-.006.027-.006.028zm-1.344 6.592 3.916.815.002-.007.001-.008zm-2.944 14.144 3.89.933.014-.058.012-.06zm-.576 2.688 3.881.97.034-.136.024-.139zm-.576 2.624-3.922-.784-.013.063-.011.063zm.256 4.544-3.235 2.353.054.074.058.072zm3.072-.192-3.054-2.584zm1.152-2.048-3.753-1.383zm.704-2.432 3.914.824.004-.02.004-.02zm.448-2.048 3.881.97.015-.06.013-.06zm1.152-5.696-3.919-.802-.007.035-.007.035zm1.152-5.952-3.919-.8-.008.039-.007.038zm1.408-7.232 3.931.737.003-.01.001-.011zm1.024-5.696-3.926-.768-.006.034-.006.034zm1.088-5.952-.263-3.991-3.15.207-.53 3.113zm9.728-.64 3.931.737.951-5.067-5.145.339zm-.576 3.072-3.931-.737zm-1.664 9.28 3.93.744.005-.027.005-.026zm-1.024 5.312-3.926-.768-.008.041-.007.042zm-1.152 5.952 3.912.832zm-1.216 5.696-3.911-.838-.01.045-.008.045zm-.96 4.608 3.886.948.005-.02.004-.019zm-3.968 8.256 2.954 2.697.014-.016.015-.016zm-5.952 4.16-1.396-3.748-.013.004-.012.005zm-6.144 1.216v-4c-.688 0-1.465-.147-2.357-.521l-1.547 3.689-1.547 3.689c1.754.735 3.579 1.143 5.451 1.143zm-3.904-.832 1.547-3.689a4.15 4.15 0 0 1-1.718-1.327l-3.157 2.456-3.157 2.456a12.16 12.16 0 0 0 4.938 3.793zm-3.328-2.56 3.157-2.456c-.234-.302-.501-.85-.501-1.96h-8c0 2.474.629 4.87 2.187 6.872zm-1.344-4.416h4v-.512h-8v.512zm0-.512h4c0 .022-.001.095-.015.208a3 3 0 0 1-.126.545l-3.795-1.265-3.795-1.265a5.6 5.6 0 0 0-.269 1.777zm.064-.512 3.974.458q.19-1.652.51-4.337l-3.972-.473-3.972-.473q-.32 2.691-.514 4.367zm.512-4.352 3.96.566q.377-2.643.884-5.745l-3.948-.645-3.948-.645a306 306 0 0 0-.908 5.903zm.896-5.824 3.95.632q.51-3.194 1.022-6.323l-3.948-.645-3.948-.645a2058 2058 0 0 0-1.026 6.349zm1.024-6.336 3.934.723q.579-3.15 1.03-5.73l-3.94-.689-3.94-.69q-.444 2.54-1.018 5.663zm1.024-5.696 3.931.737q.962-5.124 1.539-8.27l-3.934-.723-3.934-.723q-.575 3.125-1.533 8.242zm1.536-8.256 3.934.723q.576-3.13.89-4.768l-3.928-.755-3.928-.755a586 586 0 0 0-.902 4.832zm.896-4.8 3.905.868c.255-1.15.444-1.99.569-2.529l-3.898-.899-3.898-.9q-.197.86-.583 2.592zm.576-2.56.362 3.984q.688-.063 1.442-.126l-.332-3.986-.332-3.986q-.782.065-1.502.13zm1.472-.128.608 3.954q.661-.102 1.405-.156l-.285-3.99-.285-3.99q-1.047.075-2.051.228zm1.728-.192.566 3.96a23 23 0 0 1 1.469-.164l-.307-3.988-.307-3.988a31 31 0 0 0-1.987.22zm1.728-.192.285 3.99a318 318 0 0 0 1.75-.13l-.307-3.988-.307-3.988q-.82.063-1.706.126zm1.728-.128.392 3.98 3.904-.383-.392-3.981-.392-3.98-3.904.383zm3.904-.384-3.912-.834q-.831 3.896-1.596 7.405l3.908.853 3.908.853q.77-3.531 1.604-7.443zm-1.6 7.424-3.92-.798-1.343 6.59 3.919.8 3.919.8 1.345-6.594zm-1.344 6.592-3.916-.815-2.944 14.144 3.916.815 3.916.815 2.944-14.144zm-2.944 14.144-3.89-.933a51 51 0 0 0-.625 2.926l3.939.695 3.939.695c.109-.617.281-1.428.527-2.45zm-.576 2.688-3.881-.97c-.192.768-.397 1.71-.617 2.81l3.922.784 3.922.784c.207-1.034.385-1.84.535-2.438zm-.576 2.624-3.946-.658a21 21 0 0 0-.31 3.474h8c0-.592.06-1.307.202-2.158zm-.256 2.816h-4c0 1.374.355 2.813 1.277 4.081l3.235-2.353 3.235-2.353c.107.147.177.3.216.433.038.127.037.2.037.192zm.512 1.728-3.123 2.499c1.041 1.302 2.585 2.141 4.403 2.141v-8c.318 0 .703.071 1.085.262.374.188.62.426.758.599zm1.28.64v4a6.24 6.24 0 0 0 4.846-2.248l-3.054-2.584-3.054-2.584c.102-.12.289-.29.57-.42s.532-.164.692-.164zm1.792-.832 3.054 2.584c.821-.972 1.421-2.081 1.851-3.249l-3.753-1.383-3.753-1.383c-.167.454-.336.709-.453.847zm1.152-2.048 3.753 1.383q.546-1.477.865-2.991l-3.914-.824-3.914-.824a13.4 13.4 0 0 1-.543 1.873zm.704-2.432 3.922.784c.165-.825.301-1.438.407-1.862l-3.881-.97-3.881-.97c-.15.6-.313 1.352-.489 2.234zm.448-2.048 3.909.85q.651-2.999 1.176-5.814l-3.933-.732-3.933-.732a186 186 0 0 1-1.128 5.578zm1.152-5.696 3.919.802q.585-2.86 1.167-6.031l-3.934-.723-3.934-.723q-.57 3.1-1.137 5.873zm1.152-5.952 3.919.8q.649-3.177 1.42-7.295l-3.931-.737-3.931-.737q-.765 4.072-1.396 7.17zm1.408-7.232 3.935.715q.514-2.824 1.027-5.71l-3.938-.701-3.938-.7q-.511 2.872-1.021 5.68zm1.024-5.696 3.926.768q.585-2.993 1.105-6.049l-3.943-.671-3.943-.671a240 240 0 0 1-1.071 5.855zm1.088-5.952.263 3.991 9.728-.64-.263-3.991-.263-3.991-9.728.64zm9.728-.64-3.931-.737h-.001v.002l-.001.005-.001.005-.001.007-.001.003-.001.005-.001.01-.001.005-.001.001v.005l-.001.003v.001l-.001.002v.003l-.001.002v.003l-.001.002v.003l-.002.008-.006.033-.003.019-.002.01-.001.002v.003l-.001.005-.004.022-.001.005-.001.003v.003l-.001.003v.003l-.001.003v.003l-.108.576-.18.96-.252 1.344 3.931.737 3.931.737.196-1.044.056-.3.18-.96.063-.336.045-.24.001-.003.001-.003v-.003l.001-.003v-.003l.001-.002v-.003l.001-.003.002-.011.002-.01.004-.021.002-.01v-.004l.001-.003v-.002l.006-.033.002-.007V79.4l.001-.003.001-.007.001-.001v-.005l.001-.003.001-.003v-.002l.001-.003.001-.01.003-.015.001-.003v-.002l.001-.004v-.002zm-.576 3.072-3.931-.737a863 863 0 0 0-1.673 9.326l3.94.691 3.94.69c.725-4.135 1.276-7.21 1.655-9.233zm-1.664 9.28-3.93-.744a871 871 0 0 1-1.02 5.288l3.926.768 3.926.768q.578-2.954 1.028-5.336zm-1.024 5.312-3.941-.685a158 158 0 0 1-1.123 5.805l3.912.832 3.912.832q.656-3.078 1.181-6.099zm-1.152 5.952-3.912-.832-1.215 5.69 3.911.838 3.911.838q.577-2.691 1.217-5.702zm-1.216 5.696-3.929-.748a115 115 0 0 1-.926 4.447l3.895.909 3.895.909c.315-1.349.646-2.942.994-4.769zm-.96 4.608-3.886-.948c-.748 3.068-1.833 5.161-3.065 6.539l2.983 2.665 2.983 2.665c2.352-2.632 3.913-6.044 4.871-9.973zm-3.968 8.256-2.954-2.697c-1.426 1.562-2.895 2.55-4.394 3.109l1.396 3.748 1.396 3.748c2.853-1.062 5.352-2.847 7.51-5.211zm-5.952 4.16-1.421-3.739c-1.752.666-3.318.955-4.723.955v8c2.52 0 5.05-.521 7.565-1.477zm10.429.384-3.916-.816-1.278 6.132 6.101-1.42zm3.648-17.856 3.922.784.01-.05.009-.051zm2.752-15.616 3.937.707zm1.919-13.76.566-3.96-4.164-.595-.385 4.19zm6.465 0 .124 3.998.063-.002.062-.004zm3.776-.192 3.922-.784-.668-3.34-3.403.127zm.832 4.416-3.94.695.01.056.012.056zm.767 4.224-3.952.617.007.043.008.043zm.705 3.712-3.923.784.003.013.002.013zm.767 3.776 3.946-.658-.011-.063-.012-.063zm.64 3.584-3.928.755.018.09.021.088zm.64 2.944-3.929.748 7.849.049zm1.408-7.424-3.927-.758-.006.033-.006.034zm1.345-6.592 3.908.85.001-.004zm1.855-8.576-.488-3.97-2.82.347-.601 2.777zm7.809-.96 3.903.873 1.238-5.535-5.63.692zm-3.841 18.56 3.919.803.005-.026.005-.026zm-2.815 14.72-3.94-.693zm-1.856 12.032-3.97-.496-.562 4.496h4.532zm-.256.192.565 3.96.11-.016.109-.022zm-2.688.448.565 3.96.069-.01.069-.012zm-3.84.704-.855-3.908zm-3.649 1.088-3.988.299.408 5.441 5.066-2.026zm-.383-4.992 3.987-.315zm-.449-4.736-3.982.373.003.035.004.034zm-.896-8.128 3.969-.504zm-1.024-6.4 3.91-.845-7.86.216zm-1.088 6.464 3.938.703.002-.012zm-1.408 7.232-3.914-.824-.004.02-.004.02zm-1.791 8.96.907 3.896 2.509-.585.506-2.527zm-9.344 2.176 3.915.816a2270 2270 0 0 0 3.655-17.888l-3.922-.784-3.923-.784q-1.724 8.623-3.641 17.824zm3.648-17.856 3.941.683q1.406-8.118 2.748-15.592l-3.937-.707-3.938-.707q-1.346 7.5-2.756 15.64zm2.752-15.616 3.937.707q1.37-7.626 1.966-14.101l-3.984-.366-3.983-.366q-.555 6.069-1.874 13.42zm1.919-13.76-.565 3.96c.416.06.871.104 1.334.104v-8c.023 0 .019.001-.02-.002a3 3 0 0 1-.183-.022zm.769.064v4h.64v-8h-.64zm.64 0v4h1.343v-8h-1.343zm1.343 0v4q1.74 0 3.837-.066l-.124-3.998-.125-3.998q-1.999.063-3.588.062zm3.713-.064.249 3.992q2.006-.124 3.675-.187l-.148-3.997-.149-3.997q-1.787.066-3.877.197zm3.776-.192-3.923.784q.44 2.197.815 4.327l3.94-.695 3.939-.695a208 208 0 0 0-.849-4.505zm.832 4.416-3.918.807q.43 2.088.733 4.034l3.952-.617 3.953-.618a93 93 0 0 0-.803-4.413zm.767 4.224-3.937.703q.327 1.836.719 3.793l3.923-.784 3.922-.785a178 178 0 0 1-.689-3.63zm.705 3.712-3.918.81q.382 1.844.763 3.75l3.922-.784 3.923-.784a677 677 0 0 0-.773-3.802zm.767 3.776-3.945.658q.327 1.962.657 3.681l3.928-.755 3.929-.755a141 141 0 0 1-.623-3.487zm.64 3.584-3.889.933a61 61 0 0 1 .6 2.759l3.929-.748 3.93-.748a69 69 0 0 0-.68-3.13zm.64 2.944 3.92.797q.779-3.826 1.428-7.53l-3.94-.691-3.939-.691a280 280 0 0 1-1.388 7.318zm1.408-7.424 3.928.758q.697-3.611 1.325-6.5l-3.908-.85-3.909-.85q-.652 3-1.363 6.684zm1.345-6.592 3.909.846 1.856-8.576-3.91-.846-3.909-.846-1.856 8.576zm1.855-8.576.489 3.97 7.808-.96-.488-3.97-.489-3.97-7.808.96zm7.809-.96-3.904-.873a568 568 0 0 0-2.063 9.604l3.919.805 3.918.805a560 560 0 0 1 2.033-9.468zm-2.048 9.536-3.919-.805a674 674 0 0 0-1.802 9.078l3.928.751 3.929.751a659 659 0 0 1 1.782-8.97zm-1.793 9.024-3.918-.803a543 543 0 0 0-2.837 14.83l3.94.693 3.939.693a533 533 0 0 1 2.795-14.61zm-2.815 14.72-3.94-.693c-.818 4.652-1.448 8.731-1.886 12.229l3.97.496 3.969.496c.416-3.329 1.023-7.271 1.826-11.835zm-1.856 12.032v4c.117 0-.097.01-.41-.042a4 4 0 0 1-.553-.136c-.166-.055-.798-.262-1.419-.822a3.995 3.995 0 0 1-1.167-4.062 3.97 3.97 0 0 1 1.437-2.09c.511-.384.994-.539.996-.54.12-.043.203-.064.212-.067.025-.007-.008.003-.137.029l.785 3.922.784 3.922c.191-.038.408-.084.615-.139.1-.027.256-.07.432-.133.058-.021.58-.194 1.113-.594a4.02 4.02 0 0 0 1.374-4.568 4.026 4.026 0 0 0-2.545-2.464 4.4 4.4 0 0 0-.612-.15c-.409-.068-.789-.066-.905-.066zm-.256.192-.566-3.96a91 91 0 0 0-2.826.47l.704 3.938.703 3.938a80 80 0 0 1 2.55-.426zm-2.688.448-.566-3.96q-1.96.281-4.129.756l.855 3.908.854 3.908a49 49 0 0 1 3.551-.652zm-3.84.704-.855-3.908c-1.537.336-2.97.758-4.279 1.282l1.485 3.714 1.486 3.714c.824-.33 1.823-.633 3.017-.894zm-3.649 1.088 3.989-.299q-.192-2.568-.385-5.008l-3.987.315-3.988.315q.19 2.423.383 4.976zm-.383-4.992 3.987-.315a152 152 0 0 0-.46-4.863l-3.976.442-3.975.442q.249 2.237.436 4.609zm-.449-4.736 3.983-.373q-.39-4.161-.91-8.259l-3.969.504-3.968.504q.504 3.966.882 7.997zm-.896-8.128 3.969-.504c-.348-2.737-.706-5-1.083-6.741l-3.91.845-3.909.845c.306 1.416.63 3.42.965 6.059zm-1.024-6.4-3.95-.629a407 407 0 0 1-1.077 6.402l3.939.691 3.94.691q.645-3.67 1.099-6.527zm-1.088 6.464-3.937-.703a234 234 0 0 1-1.385 7.111l3.914.824 3.915.824q.78-3.706 1.431-7.353zm-1.408 7.232-3.922-.784-1.792 8.96 3.923.784 3.922.784 1.792-8.96zm-1.791 8.96-.908-3.896-9.344 2.176.908 3.896.907 3.896 9.344-2.176zm25.033 1.92-3.922-.784-1.124 5.617 5.661-.881zm1.408-6.976-3.908-.853-.006.027-.006.028zm1.408-6.912-3.922-.784-.005.021-.004.021zm3.968-23.296 3.962.547.524-3.797-3.77-.685zm-1.472-.128-.332 3.986.166.014h.166zm-1.472 0 .332 3.986.015-.001.015-.001zm-3.008-.384-3.969-.496-.401 3.21 3.056 1.064zm.128-5.056 3.98.398.002-.018.002-.018zm.128-3.136.307-3.988-3.988-.307-.307 3.988zm3.328.192.154-3.997zm12.352-.256-.293-3.99-.005.001zm8-.768 3.92.798 1.109-5.446-5.517.678zm-.704 3.456-3.92-.798-.004.023-.005.023zm-.576 3.008 3.928.755.001-.003zm-.576 2.624 1.052 3.86 2.22-.606.593-2.223zm-1.408.32.716 3.936zm-1.408.192-.362-3.984zm-1.472.192-.658-3.946-.029.005-.029.006zm-1.408.256-.716-3.935-2.666.484-.538 2.656zm-1.6 8.192-3.933-.728-.007.035-.006.035zm-1.088 6.656-3.95-.632-.005.033-.005.033zm-1.088 6.912-3.944-.668-.001.004zm-1.92 13.12.615 3.952 2.98-.463.374-2.993zm-11.52 1.792 3.922.784q.703-3.513 1.406-6.962l-3.92-.798-3.92-.798q-.705 3.462-1.41 6.99zm1.408-6.976 3.908.853q.78-3.573 1.431-7.023l-3.931-.742-3.931-.742q-.629 3.334-1.385 6.801zm1.408-6.912 3.922.784q2.454-12.266 4.008-23.533l-3.962-.547-3.962-.546q-1.518 11.004-3.928 23.058zm3.968-23.296.716-3.935a12 12 0 0 0-2.188-.193v8c.289 0 .54.024.756.064zm-1.472-.128.332-3.986a12.5 12.5 0 0 0-2.166.002l.362 3.984.362 3.984c.219-.02.476-.023.778.002zm-1.472 0-.332-3.986a3.2 3.2 0 0 1-1.362-.176l-1.314 3.778-1.314 3.778a11.2 11.2 0 0 0 4.654.592zm-3.008-.384 3.969.496q.097-.786.095-1.584h-8q-.002.355-.033.592zm.064-1.088h4V85h-8v1.28zm0-1.28h4v-1.344h-8V85zm0-1.344h4q.001-.523.044-.946l-3.98-.398-3.98-.398a18 18 0 0 0-.084 1.742zm.064-1.344 3.984.362q.08-.9.08-1.834h-8q0 .6-.048 1.11zm.064-1.472h4q0-.678.052-1.357l-3.988-.307-3.988-.307a25 25 0 0 0-.076 1.971zm.064-1.664-.307 3.988q1.74.134 3.481.201l.154-3.997.154-3.997a83 83 0 0 1-3.175-.183zm3.328.192-.154 3.997q1.741.067 3.482.067v-8a82 82 0 0 1-3.174-.061zm3.328.064v4q4.871 0 9.322-.331l-.298-3.989-.298-3.989q-4.125.308-8.726.309zm9.024-.32.293 3.99q4.433-.326 8.195-.788l-.488-3.97-.488-3.97q-3.533.435-7.805.749zm8-.768-3.92-.798-.704 3.456 3.92.798 3.92.798.704-3.456zm-.704 3.456-3.929-.752-.576 3.008 3.929.752 3.929.752.576-3.008zm-.576 3.008-3.928-.755a37 37 0 0 1-.513 2.348l3.865 1.031 3.865 1.03c.206-.772.418-1.751.639-2.899zm-.576 2.624-1.052-3.86q-.541.149-1.072.245l.716 3.935.716 3.936a21 21 0 0 0 1.744-.397zm-1.408.32-.716-3.935q-.53.096-1.054.143l.362 3.984.362 3.984a20 20 0 0 0 1.762-.24zm-1.408.192-.362-3.984q-.867.08-1.768.23l.658 3.946.658 3.946q.635-.106 1.176-.154zm-1.472.192-.716-3.935-1.408.256.716 3.935.716 3.936 1.408-.257zm-1.408.256-3.92-.795a508 508 0 0 0-1.613 8.259l3.933.728 3.933.728q.631-3.412 1.587-8.125zm-1.6 8.192-3.946-.658q-.577 3.468-1.092 6.682l3.95.632 3.95.632q.51-3.186 1.084-6.63zm-1.088 6.656-3.96-.566q-.44 3.075-1.072 6.81l3.944.668 3.944.668q.647-3.817 1.104-7.014zm-1.088 6.912-3.945-.664a317 317 0 0 0-1.944 13.288l3.969.496 3.969.496q.822-6.573 1.896-12.952zm-1.92 13.12-.615-3.952-11.52 1.792.615 3.952.615 3.952 11.52-1.792zm22.484 1.6-3.973-.467-.622 5.288 5.252-.875zm.256-2.112 3.969.496zm.255-2.048 3.97.496.004-.035.004-.035zm.385-3.584 3.977.426.007-.07.005-.071zm.128-1.664-3.987-.332zm.127-1.408 3.981.398.439-4.398h-4.42zm-5.567 0v-4h-3.041l-.814 2.929zm-2.56 9.216.54 3.963 2.609-.355.705-2.537zm-3.328.448.398 3.98.065-.006.065-.009zm-3.584.384-.459-3.974-.019.003-.019.002zm-2.049.256-.496-3.969-.016.002-.016.002zm-1.983.256-3.83-1.155-1.775 5.887 6.101-.763zm5.056-16.768 3.829 1.155.004-.013zm4.351-14.72-3.829-1.155-.009.028-.008.028zm2.241-7.552-3.828-1.162-.007.022-.006.023zm1.727-6.016-.293-3.99-2.848.21-.727 2.762zm8.832-.768-.392-3.98h-.006zm8.832-1.216 3.985.356.465-5.217-5.155.924zm-.64 8.128-3.99-.281-.001.026-.002.027zm-.511 9.28-3.995-.213-.001.026-.001.027zm-.448 9.472-3.995-.219-.002.052-.002.051zm-.32 9.152 3.996.164v-.002zm-.385 9.6.529 3.965 3.337-.445.131-3.364zm-1.919.256.528 3.965zm-1.92.256-.529-3.965-.052.007-.051.008zm-3.521.576-.657-3.946zm-6.336-16.64-3.883-.959-1.225 4.959h5.108zm1.409-.064-.235-3.993h-.008l-.007.001zm2.048-.128-.267-3.991zm1.152-.064v4h4v-4zm.255-3.392 3.981.398zm.513-5.376 3.983.362.003-.028.002-.027zm.256-3.392-3.978-.426-.007.065-.005.066zm.384-3.648 3.978.412.007-.069.005-.068zm.384-5.568 3.99.275.315-4.57-4.572.304zm-.96.064-.267-3.991-2.858.19-.74 2.768zm-1.472 5.504-3.865-1.033-.01.037-.009.037zm-1.088 33.28 3.972.467q.127-1.074.253-2.083l-3.969-.496-3.97-.496q-.13 1.039-.259 2.141zm.256-2.112 3.969.496.256-2.048-3.97-.496-3.969-.496-.256 2.048zm.255-2.048 3.978.426.384-3.584-3.977-.426-3.978-.426-.384 3.584zm.385-3.584 3.989.285q.063-.876.125-1.617l-3.986-.332-3.987-.332q-.066.795-.131 1.711zm.128-1.664 3.986.332q.062-.74.122-1.342l-3.981-.398-3.98-.398q-.068.678-.134 1.474zm.127-1.408v-4h-5.567v8h5.567zm-5.567 0-3.855-1.071-2.56 9.216 3.855 1.071 3.854 1.071 2.56-9.216zm-2.56 9.216-.541-3.963q-1.4.19-3.316.446l.529 3.965.528 3.965q1.924-.257 3.34-.45zm-3.328.448-.399-3.98q-1.946.195-3.644.39l.459 3.974.458 3.974q1.63-.189 3.524-.378zm-3.584.384-.497-3.969-2.048.256.496 3.969.497 3.969 2.048-.256zm-2.049.256-.528-3.965q-.943.126-1.952.252l.497 3.969.496 3.969a221 221 0 0 0 2.016-.26zm-1.983.256 3.829 1.155 5.056-16.768-3.829-1.155-3.83-1.155-5.056 16.768zm5.056-16.768 3.833 1.142q.894-3.003 2.046-6.841L223.947 101l-3.831-1.15q-1.152 3.844-2.05 6.856zm2.047-6.848 3.832 1.149a637 637 0 0 0 2.319-7.922l-3.847-1.099-3.846-1.099a609 609 0 0 1-2.289 7.822zm2.304-7.872 3.83 1.155a813 813 0 0 0 2.251-7.59l-3.84-1.117-3.841-1.117a829 829 0 0 1-2.229 7.514zm2.241-7.552 3.827 1.162a176 176 0 0 0 1.769-6.16l-3.869-1.018-3.868-1.018c-.409 1.556-.97 3.51-1.687 5.872zm1.727-6.016.294 3.99a342 342 0 0 0 8.937-.778l-.399-3.98-.398-3.98q-4.429.442-8.727.759zm8.832-.768.393 3.98a117 117 0 0 0 9.145-1.259l-.706-3.937-.705-3.937q-4.124.738-8.519 1.172zm8.832-1.216-3.984-.356q-.324 3.63-.646 8.203l3.99.281 3.991.281q.318-4.515.634-8.053zm-.64 8.128-3.993-.228q-.256 4.488-.513 9.295l3.995.213 3.994.213q.256-4.793.511-9.265zm-.511 9.28-3.997-.16a643 643 0 0 1-.446 9.413l3.995.219 3.994.219q.257-4.703.45-9.531zm-.448 9.472-3.999-.116a803 803 0 0 1-.318 9.106l3.997.162 3.996.162q.193-4.758.322-9.198zm-.32 9.152-3.997-.164q-.192 4.676-.384 9.608l3.996.156 3.997.156q.192-4.924.384-9.592zm-.385 9.6-.528-3.965-1.92.256.529 3.965.528 3.965 1.92-.256zm-1.919.256-.529-3.965-1.92.256.529 3.965.528 3.965 1.92-.256zm-1.92.256-.632-3.95q-1.615.26-3.546.58l.657 3.946.658 3.946q1.91-.319 3.494-.572zm-3.521.576-.657-3.946-3.456.576.658 3.946.657 3.946 3.456-.576zm-6.336-16.64v4c.398 0 .985-.03 1.658-.072l-.249-3.992-.25-3.992c-.693.043-1.044.056-1.159.056zm1.409-.064.234 3.993q1.102-.064 2.08-.13l-.266-3.991-.267-3.991q-.942.063-2.016.126zm2.048-.128.266 3.991a55 55 0 0 1 .908-.054c.052-.003.032-.001-.022-.001v-8c-.296 0-.848.035-1.419.073zm1.152-.064h4c0-.32.061-1.25.236-2.994l-3.981-.398-3.98-.398c-.167 1.669-.275 3.001-.275 3.79zm.255-3.392 3.981.398q.257-2.58.515-5.412l-3.983-.362-3.984-.362q-.255 2.799-.509 5.34zm.513-5.376 3.988.307q.128-1.67.257-3.403l-3.989-.296-3.99-.295q-.127 1.722-.255 3.38zm.256-3.392 3.977.426q.192-1.8.385-3.662l-3.978-.412-3.979-.412a987 987 0 0 1-.383 3.634zm.384-3.648 3.99.275.384-5.568-3.99-.275-3.991-.275-.384 5.568zm.384-5.568-.267-3.991-.96.064.267 3.991.266 3.991.96-.064zm-.96.064-3.865-1.033-1.472 5.504 3.865 1.033 3.864 1.033 1.472-5.504zm-1.472 5.504-3.884-.96L228 106.698l3.883.959 3.884.959 3.968-16.064z" mask="url(#b)"/></g><defs><filter id="a" width="253.303" height="147.185" x=".23" y=".652" color-interpolation-filters="sRGB" filterUnits="userSpaceOnUse"><feFlood flood-opacity="0" result="BackgroundImageFix"/><feColorMatrix in="SourceAlpha" result="hardAlpha" values="0 0 0 0 0 0 0 0 0 0 0 0 0 0 0 0 0 0 127 0"/><feOffset dx="-9" dy="7"/><feGaussianBlur stdDeviation="5.1"/><feComposite in2="hardAlpha" operator="out"/><feColorMatrix values="0 0 0 0 0 0 0 0 0 0 0 0 0 0 0 0 0 0 0.44 0"/><feBlend in2="BackgroundImageFix" result="effect1_dropShadow_405_448"/><feBlend in="SourceGraphic" in2="effect1_dropShadow_405_448" result="shape"/></filter></defs></svg>